<mxfile host="65bd71144e">
    <diagram name="ページ1" id="6KWnpKYZgovecatdag18">
        <mxGraphModel dx="933" dy="474" grid="1" gridSize="10" guides="1" tooltips="1" connect="1" arrows="1" fold="1" page="1" pageScale="1" pageWidth="827" pageHeight="1169" math="0" shadow="0">
            <root>
                <mxCell id="0"/>
                <mxCell id="1" parent="0"/>
                <mxCell id="KBqEdn5SgZ5WZnfKdi-t-45" value="" style="whiteSpace=wrap;html=1;aspect=fixed;fillColor=none;strokeColor=default;" parent="1" vertex="1">
                    <mxGeometry x="20" y="70" width="796" height="796" as="geometry"/>
                </mxCell>
                <mxCell id="KBqEdn5SgZ5WZnfKdi-t-82" value="ヘッダー" style="rounded=0;whiteSpace=wrap;html=1;fillColor=#ffcd28;strokeColor=#d79b00;gradientColor=#ffa500;" parent="1" vertex="1">
                    <mxGeometry x="20" y="70" width="810" height="60" as="geometry"/>
                </mxCell>
                <mxCell id="KBqEdn5SgZ5WZnfKdi-t-65" value="画像を送るボタン" style="rounded=0;whiteSpace=wrap;html=1;fillColor=none;strokeColor=none;" parent="1" vertex="1">
                    <mxGeometry x="230" y="910" width="120" height="60" as="geometry"/>
                </mxCell>
                <mxCell id="KBqEdn5SgZ5WZnfKdi-t-33" value="" style="shape=actor;whiteSpace=wrap;html=1;" parent="1" vertex="1">
                    <mxGeometry x="750" y="190" width="40" height="60" as="geometry"/>
                </mxCell>
                <mxCell id="KBqEdn5SgZ5WZnfKdi-t-37" value="矢印はできれば吹き出しみたいに" style="rounded=0;whiteSpace=wrap;html=1;fillColor=#6a00ff;strokeColor=#3700CC;fontColor=#ffffff;" parent="1" vertex="1">
                    <mxGeometry x="300" y="200" width="400" height="60" as="geometry"/>
                </mxCell>
                <mxCell id="KBqEdn5SgZ5WZnfKdi-t-38" value="" style="shape=singleArrow;whiteSpace=wrap;html=1;" parent="1" vertex="1">
                    <mxGeometry x="700" y="220" width="20" height="20" as="geometry"/>
                </mxCell>
                <mxCell id="KBqEdn5SgZ5WZnfKdi-t-39" value="" style="shape=actor;whiteSpace=wrap;html=1;" parent="1" vertex="1">
                    <mxGeometry x="50" y="290" width="40" height="60" as="geometry"/>
                </mxCell>
                <mxCell id="KBqEdn5SgZ5WZnfKdi-t-78" style="edgeStyle=orthogonalEdgeStyle;rounded=0;orthogonalLoop=1;jettySize=auto;html=1;" parent="1" source="KBqEdn5SgZ5WZnfKdi-t-40" target="KBqEdn5SgZ5WZnfKdi-t-37" edge="1">
                    <mxGeometry relative="1" as="geometry"/>
                </mxCell>
                <mxCell id="KBqEdn5SgZ5WZnfKdi-t-40" value="枠のデザインもできれば考えてほしいな" style="rounded=0;whiteSpace=wrap;html=1;" parent="1" vertex="1">
                    <mxGeometry x="140" y="290" width="410" height="60" as="geometry"/>
                </mxCell>
                <mxCell id="KBqEdn5SgZ5WZnfKdi-t-42" value="" style="shape=singleArrow;direction=west;whiteSpace=wrap;html=1;" parent="1" vertex="1">
                    <mxGeometry x="110" y="310" width="30" height="20" as="geometry"/>
                </mxCell>
                <mxCell id="KBqEdn5SgZ5WZnfKdi-t-43" value="ここにメッセージ" style="rounded=0;whiteSpace=wrap;html=1;" parent="1" vertex="1">
                    <mxGeometry x="30" y="20" width="300" height="40" as="geometry"/>
                </mxCell>
                <mxCell id="KBqEdn5SgZ5WZnfKdi-t-49" value="メッセージ入力" style="ellipse;whiteSpace=wrap;html=1;" parent="1" vertex="1">
                    <mxGeometry x="420" y="765" width="363" height="60" as="geometry"/>
                </mxCell>
                <mxCell id="KBqEdn5SgZ5WZnfKdi-t-51" value="" style="shape=image;verticalLabelPosition=bottom;labelBackgroundColor=default;verticalAlign=top;aspect=fixed;imageAspect=0;image=data:image/png,iVBORw0KGgoAAAANSUhEUgAAAN0AAAEICAYAAADbQPEyAAAAAXNSR0IArs4c6QAAAARnQU1BAACxjwv8YQUAAAAJcEhZcwAADsMAAA7DAcdvqGQAAAATdEVYdFNvZnR3YXJlAFBob3RvU2NhcGWAdZG/AAAHeElEQVR4Xu3dMY9dxRnHYX+DIDaIlk+A+Aju0/ANSGH2llBQUAalS5UodaI0SCl2uZEpaCgQRWhAQhGSoygFsSylwJa2sQuaJWOOYBBjZ+/uO++dOed5pH+D17qj3fOjObPyLQBYv5f3u1dO9rvbZqOsPJPL47lOJ+e73/zyg92l2UC7eGl/57XlEV0f0dmIe/GDO1/+Yv/GC8tjui6is1G32vBEZyOvhLc8qushOht+57u/LI/rOojOptiawhOdTbPz07eXx3ZuorOZ9tJ+9+vl0Z2X6Gy2nexPX18e3zmJzibc3C/PRWeTbt7wRGfz7vTrKV+eHxrdO5/+7hIOUZ6Z1rMUsSlvrYiO3npGVzZdeKKjt97RPd1ML89FR28p0ZXNEp7o6C0tuv+tPM/Loz0u0dFbZnRlw99aER29HRrd+1+dN//7IRs6PNHR26HR/fObf11++p+/N//sgI378lx09Had6Io//+OvzT8/YGOGJzp6u250xR8+/1Pzaw7YxXDv8ERHbzeJrvjtZ39sft1VN9zLc9HR202je/Ltk8s7H7/X/NqrbqjwREdvN42uiAhvmJfnoqO3iOiKh48fXb764VvNv3PljRCe6OgtKrri/sWDG4d3cn76++XxPw7R0VtkdEUJr/X3DtlRX56Ljt6ioysCXp4fLzzR0VuP6IqY8I7w8lx09NYrumLKWyuio7ee0RURt1ZS/0080dFb7+iKm4aX+vJcdPSWEd1Ut1ZER28Z0RUht1bO3vzbkkY/oqO3rOiKEt7wt1ZER2+Z0RXD31oRHb1lR1dEhNft5bno6O0Y0RXD3loRHb0dK7oiIryT/e72kksM0dHbMaMrzu7dbX7OAYu9tSI6ejt2dEXErZWw8ERHbyNEVwxza0V09DZKdMPcWhEdvY0SXRES3tnukyWf6xEdvY0UXVHC+9VH7zY/+8q7ya2V0aMr36DyQ7AfV74nMxktuiLi5fm1wxs9uvIDaJ1jy8t4KCONGF1xtFsroptvoovzxX+/bJ7hkB0cnujmm+hipd9aEd18E128j/79cfMsB+zqL89FN99E10farRXRzTfR9XPz8E6//r8vz0U330TXV/dbK6Kbb6LrK+q62JLYz4luvomuv4jwnvnyXHTzTXQ5ut1aEd18E12emPBO315y+57o5tvao1vjfnJrRXTzTXRz7mR/+rroJp3o5lxpTXSTTnRzTnQTT3RzTnQTT3RzTnQTT3RzTnQTT3RzTnQTT3RzTnQTT3RzTnQTT3RzTnQTT3RzTnQTb7bo1urQ/5mIbuKJbgyi29BENwbRbWiiG4PoNjTRjUF0G5roxiC6DU10YxDdhia6MYhuQxPdGES3oYluDKLb0EQ3BtFtaKIbg+g2NNGNQXQbmujGILoNTXRjEN2GJroxiG5DE90YRLehiW4MotvQRDcG0W1oohuD6DY00Y1BdBua6MYgug1NdGMQ3YYmujGIbkMT3RhEt6GJbgyi29BENwbRbWiiG4PoNjTRjUF0G5roxrDa6O5fPHj6mfbjyveE4ys/i1Yjz9o00cGoRAfJRAfJRAfJRAfJRAfJRAfJRAfJRAfJRAfJRAfJRAfJRAfJRAfJVh/d2b27Zs/dw8ePlqclx+qja53FrF72L/eKzjY/0QVrncWsnuiCtc5iVk90wVpnMasnumCts5jVE12w1lnM6okuWOssZvVEF6x1FrN6ogvWOotZPdEFa53FrJ7ogrXu2pnVc/cSVk50kEx0kEx0kEx0kEx0kEx0kEx0kEx0kEx0kEx0kEx0kGz10ZUb5GbP25NvnyxPS47VR9c6i1m9El4m0dnmJ7pgrbOY1RNdsNZZzOqJLljrLGb1RBesdRazeqIL1jqLWT3RBWudxaye6IK1zmJWT3TBWmcxqye6YK2zmNUTXbDyuWbP2/2LB8vTkqN8ZquRZ2266GA0ooNkooNkooNkooNkooNkooNkooNkooNkooNkooNkooNkooNkq4+udRazen61J1jrLGb1RBesdRazeqIL1jqLWT3RBWudxaye6IK1zmJWT3TBWmcxqye6YK2zmNUTXbDWWczqiS5Y6yxm9UQXrHUWs3qiC9Y6i1k90cHKiQ6SiQ6SiQ6SiQ6SiQ6SiQ6SiQ6SiQ6SiQ6SiQ6SiQ6SiQ6SrT66s3t3zZ67h48fLU9LjtVH1zqLWT2/2hOsdRazeqIL1jqLWT3RBWudxaye6IK1zmJWT3TBWmcxqye6YK2zmNUTXbDWWczqiS5Y6yxm9UQXrHUWs3qiC9Y6i1k90QVr3bUzq+fuJayc6CCZ6CCZ6CCZ6CCZ6CCZ6CCZ6CCZ6CCZ6CCZ6CCZ6CCZ6CCZ6CCZ6CCZ6CCZ6CCZ6CCZ6CCZ6CCZ6CCZ6CCZ6CCZ6CCZ6CCZ6CCZ6CCZ6CCZ6CCZ6CCZ6CCZ6CCZ6CCZ6CCZ6CCZ6CCZ6CCZ6CCZ6CCZ6CCZ6CCZ6CBZWnRmdr2Jzix5ojNLnujMkic6s+SJzix5ojNLnujMkic6s+SJzix5ojNLnujMkvdDdC/vd6+c7He3zazvSmtPowOAlbp16zvbTvU0VluPhgAAAABJRU5ErkJggg==;" parent="1" vertex="1">
                    <mxGeometry x="180" y="760" width="60" height="70" as="geometry"/>
                </mxCell>
                <mxCell id="KBqEdn5SgZ5WZnfKdi-t-56" value="" style="shape=singleArrow;direction=north;whiteSpace=wrap;html=1;rotation=40;" parent="1" vertex="1">
                    <mxGeometry x="230" y="740" width="20" height="40" as="geometry"/>
                </mxCell>
                <mxCell id="KBqEdn5SgZ5WZnfKdi-t-59" value="" style="shape=image;verticalLabelPosition=bottom;labelBackgroundColor=default;verticalAlign=top;aspect=fixed;imageAspect=0;image=data:image/png,iVBORw0KGgoAAAANSUhEUgAAAN0AAAEICAYAAADbQPEyAAAAAXNSR0IArs4c6QAAAARnQU1BAACxjwv8YQUAAAAJcEhZcwAADsMAAA7DAcdvqGQAAAATdEVYdFNvZnR3YXJlAFBob3RvU2NhcGWAdZG/AAAHeElEQVR4Xu3dMY9dxRnHYX+DIDaIlk+A+Aju0/ANSGH2llBQUAalS5UodaI0SCl2uZEpaCgQRWhAQhGSoygFsSylwJa2sQuaJWOOYBBjZ+/uO++dOed5pH+D17qj3fOjObPyLQBYv5f3u1dO9rvbZqOsPJPL47lOJ+e73/zyg92l2UC7eGl/57XlEV0f0dmIe/GDO1/+Yv/GC8tjui6is1G32vBEZyOvhLc8qushOht+57u/LI/rOojOptiawhOdTbPz07eXx3ZuorOZ9tJ+9+vl0Z2X6Gy2nexPX18e3zmJzibc3C/PRWeTbt7wRGfz7vTrKV+eHxrdO5/+7hIOUZ6Z1rMUsSlvrYiO3npGVzZdeKKjt97RPd1ML89FR28p0ZXNEp7o6C0tuv+tPM/Loz0u0dFbZnRlw99aER29HRrd+1+dN//7IRs6PNHR26HR/fObf11++p+/N//sgI378lx09Had6Io//+OvzT8/YGOGJzp6u250xR8+/1Pzaw7YxXDv8ERHbzeJrvjtZ39sft1VN9zLc9HR202je/Ltk8s7H7/X/NqrbqjwREdvN42uiAhvmJfnoqO3iOiKh48fXb764VvNv3PljRCe6OgtKrri/sWDG4d3cn76++XxPw7R0VtkdEUJr/X3DtlRX56Ljt6ioysCXp4fLzzR0VuP6IqY8I7w8lx09NYrumLKWyuio7ee0RURt1ZS/0080dFb7+iKm4aX+vJcdPSWEd1Ut1ZER28Z0RUht1bO3vzbkkY/oqO3rOiKEt7wt1ZER2+Z0RXD31oRHb1lR1dEhNft5bno6O0Y0RXD3loRHb0dK7oiIryT/e72kksM0dHbMaMrzu7dbX7OAYu9tSI6ejt2dEXErZWw8ERHbyNEVwxza0V09DZKdMPcWhEdvY0SXRES3tnukyWf6xEdvY0UXVHC+9VH7zY/+8q7ya2V0aMr36DyQ7AfV74nMxktuiLi5fm1wxs9uvIDaJ1jy8t4KCONGF1xtFsroptvoovzxX+/bJ7hkB0cnujmm+hipd9aEd18E128j/79cfMsB+zqL89FN99E10farRXRzTfR9XPz8E6//r8vz0U330TXV/dbK6Kbb6LrK+q62JLYz4luvomuv4jwnvnyXHTzTXQ5ut1aEd18E12emPBO315y+57o5tvao1vjfnJrRXTzTXRz7mR/+rroJp3o5lxpTXSTTnRzTnQTT3RzTnQTT3RzTnQTT3RzTnQTT3RzTnQTT3RzTnQTT3RzTnQTT3RzTnQTT3RzTnQTb7bo1urQ/5mIbuKJbgyi29BENwbRbWiiG4PoNjTRjUF0G5roxiC6DU10YxDdhia6MYhuQxPdGES3oYluDKLb0EQ3BtFtaKIbg+g2NNGNQXQbmujGILoNTXRjEN2GJroxiG5DE90YRLehiW4MotvQRDcG0W1oohuD6DY00Y1BdBua6MYgug1NdGMQ3YYmujGIbkMT3RhEt6GJbgyi29BENwbRbWiiG4PoNjTRjUF0G5roxrDa6O5fPHj6mfbjyveE4ys/i1Yjz9o00cGoRAfJRAfJRAfJRAfJRAfJRAfJRAfJRAfJRAfJRAfJRAfJRAfJRAfJVh/d2b27Zs/dw8ePlqclx+qja53FrF72L/eKzjY/0QVrncWsnuiCtc5iVk90wVpnMasnumCts5jVE12w1lnM6okuWOssZvVEF6x1FrN6ogvWOotZPdEFa53FrJ7ogrXu2pnVc/cSVk50kEx0kEx0kEx0kEx0kEx0kEx0kEx0kEx0kEx0kEx0kGz10ZUb5GbP25NvnyxPS47VR9c6i1m9El4m0dnmJ7pgrbOY1RNdsNZZzOqJLljrLGb1RBesdRazeqIL1jqLWT3RBWudxaye6IK1zmJWT3TBWmcxqye6YK2zmNUTXbDyuWbP2/2LB8vTkqN8ZquRZ2266GA0ooNkooNkooNkooNkooNkooNkooNkooNkooNkooNkooNkooNkq4+udRazen61J1jrLGb1RBesdRazeqIL1jqLWT3RBWudxaye6IK1zmJWT3TBWmcxqye6YK2zmNUTXbDWWczqiS5Y6yxm9UQXrHUWs3qiC9Y6i1k90cHKiQ6SiQ6SiQ6SiQ6SiQ6SiQ6SiQ6SiQ6SiQ6SiQ6SiQ6SiQ6SrT66s3t3zZ67h48fLU9LjtVH1zqLWT2/2hOsdRazeqIL1jqLWT3RBWudxaye6IK1zmJWT3TBWmcxqye6YK2zmNUTXbDWWczqiS5Y6yxm9UQXrHUWs3qiC9Y6i1k90QVr3bUzq+fuJayc6CCZ6CCZ6CCZ6CCZ6CCZ6CCZ6CCZ6CCZ6CCZ6CCZ6CCZ6CCZ6CCZ6CCZ6CCZ6CCZ6CCZ6CCZ6CCZ6CCZ6CCZ6CCZ6CCZ6CCZ6CCZ6CCZ6CCZ6CCZ6CCZ6CCZ6CCZ6CCZ6CCZ6CCZ6CCZ6CCZ6CCZ6CCZ6CCZ6CCZ6CBZWnRmdr2Jzix5ojNLnujMkic6s+SJzix5ojNLnujMkic6s+SJzix5ojNLnujMkvdDdC/vd6+c7He3zazvSmtPowOAlbp16zvbTvU0VluPhgAAAABJRU5ErkJggg==;" parent="1" vertex="1">
                    <mxGeometry x="60" y="1010" width="60" height="70" as="geometry"/>
                </mxCell>
                <mxCell id="KBqEdn5SgZ5WZnfKdi-t-60" value="" style="shape=singleArrow;direction=north;whiteSpace=wrap;html=1;rotation=45;" parent="1" vertex="1">
                    <mxGeometry x="90" y="1000" width="20" height="40" as="geometry"/>
                </mxCell>
                <mxCell id="KBqEdn5SgZ5WZnfKdi-t-61" value="" style="shape=image;verticalLabelPosition=bottom;labelBackgroundColor=default;verticalAlign=top;aspect=fixed;imageAspect=0;image=data:image/jpeg,/9j/4AAQSkZJRgABAQAAAQABAAD/2wBDAAMCAgICAgMCAgIDAwMDBAYEBAQEBAgGBgUGCQgKCgkICQkKDA8MCgsOCwkJDRENDg8QEBEQCgwSExIQEw8QEBD/2wBDAQMDAwQDBAgEBAgQCwkLEBAQEBAQEBAQEBAQEBAQEBAQEBAQEBAQEBAQEBAQEBAQEBAQEBAQEBAQEBAQEBAQEBD/wAARCAEAAQADAREAAhEBAxEB/8QAHwAAAQUBAQEBAQEAAAAAAAAAAAECAwQFBgcICQoL/8QAtRAAAgEDAwIEAwUFBAQAAAF9AQIDAAQRBRIhMUEGE1FhByJxFDKBkaEII0KxwRVS0fAkM2JyggkKFhcYGRolJicoKSo0NTY3ODk6Q0RFRkdISUpTVFVWV1hZWmNkZWZnaGlqc3R1dnd4eXqDhIWGh4iJipKTlJWWl5iZmqKjpKWmp6ipqrKztLW2t7i5usLDxMXGx8jJytLT1NXW19jZ2uHi4+Tl5ufo6erx8vP09fb3+Pn6/8QAHwEAAwEBAQEBAQEBAQAAAAAAAAECAwQFBgcICQoL/8QAtREAAgECBAQDBAcFBAQAAQJ3AAECAxEEBSExBhJBUQdhcRMiMoEIFEKRobHBCSMzUvAVYnLRChYkNOEl8RcYGRomJygpKjU2Nzg5OkNERUZHSElKU1RVVldYWVpjZGVmZ2hpanN0dXZ3eHl6goOEhYaHiImKkpOUlZaXmJmaoqOkpaanqKmqsrO0tba3uLm6wsPExcbHyMnK0tPU1dbX2Nna4uPk5ebn6Onq8vP09fb3+Pn6/9oADAMBAAIRAxEAPwD9U6ACgAoAKACgAoAKACgAoAKACgAoAKACgAoAKACgAoAKACgAoAKACgAoAKACgAoAKACgAoAKACgAoAKACgAoAKACgAoAKACgAoAKACgAoAKACgAoAKACgAoAKACgAoAKACgAoAKACgAoAKACgAoAKAPLP+Gpf2d/+iweGv8AwMFAB/w1L+zv/wBFg8Nf+BgoAP8AhqX9nf8A6LB4a/8AAwUAH/DUv7O//RYPDX/gYKAD/hqX9nf/AKLB4a/8DBQAf8NS/s7/APRYPDX/AIGCgA/4al/Z3/6LB4a/8DBQAf8ADUv7O/8A0WDw1/4GCgA/4al/Z3/6LB4a/wDAwUAH/DUv7O//AEWDw1/4GCgA/wCGpf2d/wDosHhr/wADBQAf8NS/s7/9Fg8Nf+BgoAP+Gpf2d/8AosHhr/wMFAB/w1L+zv8A9Fg8Nf8AgYKAD/hqX9nf/osHhr/wMFAB/wANS/s7/wDRYPDX/gYKAD/hqX9nf/osHhr/AMDBQAf8NS/s7/8ARYPDX/gYKAD/AIal/Z3/AOiweGv/AAMFAB/w1L+zv/0WDw1/4GCgA/4al/Z3/wCiweGv/AwUAH/DUv7O/wD0WDw1/wCBgoAP+Gpf2d/+iweGv/AwUAH/AA1L+zv/ANFg8Nf+BgoAP+Gpf2d/+iweGv8AwMFAB/w1L+zv/wBFg8Nf+BgoAP8AhqX9nf8A6LB4a/8AAwUAH/DUv7O//RYPDX/gYKAD/hqX9nf/AKLB4a/8DBQAf8NS/s7/APRYPDX/AIGCgA/4al/Z3/6LB4a/8DBQAf8ADUv7O/8A0WDw1/4GCgD8cqACgAoAKACgAoAKACgAoAKACgAoAKACgAoAKACgAoAKACgAoAKACgAoAKACgAoAKACgAoAKACgAoAKACgAoAKACgAoAKACgAoAKACgAoAKACgAoAKACgAoAKACgAoAKACgAoAKACgAoAKACgAoAKACgAoA+mv2KP2ePh98fbnxfD48OqBdEjsWtfsNyITmUzh92VbP+rXH40AfUv/Duj9nr/np4p/8ABmn/AMboAP8Ah3R+z1/z08U/+DNP/jdAB/w7o/Z6/wCenin/AMGaf/G6AD/h3R+z1/z08U/+DNP/AI3QAf8ADuj9nr/np4p/8Gaf/G6AD/h3R+z1/wA9PFP/AIM0/wDjdAB/w7o/Z6/56eKf/Bmn/wAboAP+HdH7PX/PTxT/AODNP/jdAB/w7o/Z6/56eKf/AAZp/wDG6AD/AId0fs9f89PFP/gzT/43QAf8O6P2ev8Anp4p/wDBmn/xugA/4d0fs9f89PFP/gzT/wCN0AH/AA7o/Z6/56eKf/Bmn/xugA/4d0fs9f8APTxT/wCDNP8A43QAf8O6P2ev+enin/wZp/8AG6AD/h3R+z1/z08U/wDgzT/43QAf8O6P2ev+enin/wAGaf8AxugA/wCHdH7PX/PTxT/4M0/+N0AH/Duj9nr/AJ6eKf8AwZp/8boAP+HdH7PX/PTxT/4M0/8AjdAB/wAO6P2ev+enin/wZp/8boAP+HdH7PX/AD08U/8AgzT/AON0AH/Duj9nr/np4p/8Gaf/ABugA/4d0fs9f89PFP8A4M0/+N0AH/Duj9nr/np4p/8ABmn/AMboAP8Ah3R+z1/z08U/+DNP/jdAHy7+2x+zt8PfgDJ4OTwG2qEa4uoG6+3XIm/1P2fZtwq4/wBa2fwoA+YqACgAoAKAPuj/AIJef8f/AMRv+uOlf+hXVAH3xQAUAFABQAUAFABQAUAFABQAUAFABQAUAFABQAUAFABQAUAFABQAUAFABQAUAfBf/BUX/X/DX/c1f+dpQB8J0AFABQAUAfdH/BLz/j/+I3/XHSv/AEK6oA++KACgAoAKACgAoAKACgAoAKACgAoAKACgAoAKACgAoAKACgAoAKACgAoAKACgD4L/AOCov+v+Gv8Auav/ADtKAPhOgAoAKACgD7o/4Jef8f8A8Rv+uOlf+hXVAH3xQAUAFABQAUAFAEN3eWmn20l5f3UNtbxDdJLM4REHqWPAFAHk3iD9rr9m/wAM3MtnqfxY0l5YTtcWSTXgB9A0COD+BoAs+Fv2qP2evGV1HZaF8VtFM8wzHHeM9kWPoPPVMt7dfagD1VWV1DowZWGQQcgigBaACgAoAKACgAoAKACgAoAKACgAoAKACgAoAKAPgv8A4Ki/6/4a/wC5q/8AO0oA+E6ACgAoAKAPuj/gl5/x/wDxG/646V/6FdUAffFABQAUAFABQBxfxe+K/hb4L+Br7x14snIt7YCO3t0I827uGB2Qxg9WOD9AGJ4BoA/Kn44/tKfEr46azcT+INXms9E8wm00S2lK2sCZ+XcBjzX9XbJz02jAAB5TQAUAe7/s8ftc/EP4G6na6dd31zrvhAsEuNIuJSxgj7tbMx/dMOu37jc5AJDAA/U7wX4y8OfEHwtp3jLwnqUd/pOqwie3mTuOhVh1VlIKsp5DAg8igDboAKACgAoAKACgAoAKACgAoAKACgAoAKACgD4L/wCCov8Ar/hr/uav/O0oA+E6ACgAoAKAPuj/AIJef8f/AMRv+uOlf+hXVAH3xQAUAFABQAUAfmD/AMFBfipfeM/jK/gW3uidI8HRLbpEpO17uRVeaQ+pGVT22H1NAHy7QAUAFABQB9u/8E1vitd2uv658HdRuwbK9gbWNNVzylwhVZkX/eQq2On7onucgH6B0AFABQAUAFABQAUAFABQAUAFABQAUAFABQB8F/8ABUX/AF/w1/3NX/naUAfCdABQAUAFAH3R/wAEvP8Aj/8AiN/1x0r/ANCuqAPvigAoAKACgAoA/Fr49y3M/wAcfiFJeYEx8UaoGA6DF1IAB7YFAHCUAFABQAUAe6fsQS3EX7UPgr7MMl3vkYeqGxn3fkOfwoA/WygAoAKACgAoAKACgAoAKACgAoAKACgAoAKAPgv/AIKi/wCv+Gv+5q/87SgD4ToAKACgAoA+6P8Agl5/x/8AxG/646V/6FdUAffFABQAUAFABQB+Un7dXw4u/Anx+1jVVt2XTfFYXWLSTHDOwCzrn+8JQ5x2Dr60AfPVABQAUAFAH19/wTd+HV5rXxR1T4j3Fq39n+HLB7aGY8A3k+FCj1xF5ufTcvqKAP0ioAKACgAoA+Rf2gf2/tA+G2vXXgz4baHb+JdVsXMV5fXExWyglHVFCfNMQeCQygEYBPOADyXwl/wU0+Idtqaf8Jx4A8P6hpzMAw0tprSdATyQZHlVsDoMLnHUZyAD7q+GfxL8IfFzwdZeOPBOo/atOvAVKuAstvKv34ZUydjr3HQggglSCQDqqACgAoAKACgAoAKACgD4L/4Ki/6/4a/7mr/ztKAPhOgAoAKACgD7o/4Jef8AH/8AEb/rjpX/AKFdUAffFABQAUAFABQB5P8AtJfAHRP2gfAMnh26kitNasC1xouoODi3nIGVbHJjcAKwwccMASooA/Jv4hfDrxj8LfE914R8caLPpuo2p6OMpMmeJI36Oh7MPp1BFAHN0AFAHe/Bz4KeO/jh4oj8NeC9NLqpDXl9KCttZxf35G/ko5J6CgD9bvg98KPDXwX8Baf4E8MRlobRd9xcuB5l1cNjfK+O5PQdgAO1AHa0AFABQB85/trftCD4M/Ds+H/D16Y/FniiN7exKH5rS34EtwfQ4O1P9o5GdhoA/Kskkkk5J6mgAoA+hf2Mf2hW+CfxFXSvEN+0fhHxIy22oh2/d2k3SK6x22n5X/2GJOSiigD9WlZXUOjBlYZBByCKAFoAKACgAoAKACgAoA+C/wDgqL/r/hr/ALmr/wA7SgD4ToAKACgAoA+6P+CXn/H/APEb/rjpX/oV1QB98UAFABQAUAFABQBzfjr4ceBPibo50Hx94W0/W7IEsiXUWWhYjBaNxh42xxuQg470AfOfiH/gm58DtUuHudE1zxTou7G2CK7inhT6CSMv+bmgC74W/wCCdXwC0G6jvNYn8R+IShyYL6+SOFvwgRG/8eoA+jfC/hLwx4J0eHQPCOgWGj6dB9y2s4FiQHuSAOSe5PJ70Aa1ABQAUAYfjfxloPw98J6p408T3gttM0m3a4nc9SB0VR3ZiQoHckCgD8cPjJ8VNf8AjN8QtU8e+IG2yXsmy2twfltbZciOJfYDqe7Fj3oA4qgAoAKAP0o/YF/aHPj7wkfhL4pvS+v+GrcNYSyNlrvT1woGT1eIkKfVCnXDGgD64oAKACgAoAKACgAoA+C/+Cov+v8Ahr/uav8AztKAPhOgAoAKACgD7o/4Jef8f/xG/wCuOlf+hXVAH3xQAUAFABQAUAFABQAUAFABQAUAFABQB+bv7fn7RH/CbeJ/+FQeFL7dofh6cnVJI2+W6v1yNnusXI/3y390GgD5BoAKACgAoA3fAvjXX/h14v0rxt4Yu/s+p6PcrcwNztbH3kYAjKMpKsO6sRQB+x/we+Kfh/4y/D7SvH3h2QCK+j23FuTl7W5UASwt7q3fuCrDgigDtKACgAoAKACgAoA+C/8AgqL/AK/4a/7mr/ztKAPhOgAoAKACgD7o/wCCXn/H/wDEb/rjpX/oV1QB98UAFABQAUAFACEgAknAHU0AfNvxR/b3+Cfw51mbw9px1HxVfWzNHO2kqhtonBwUMzsAx90DD3zxQA/4U/t5fBb4ma3B4avv7R8LalduI7b+1VT7PPIThUWZGIVj/thQegJJAoA+kKACgAoAKAPAP2xv2hI/gf8ADl7LQrtF8WeIle10xQ3z2yYxJdEf7AOF9XK9QGoA/KCSSSWRpZXZ3clmZjksT1JPc0ANoAKACgAoAKAPoz9ir9og/Bf4gDw94jvinhHxNIkF6Xb5LK46R3PPAHO1+nynJzsAoA/VSgAoAKACgAoAKAPgv/gqL/r/AIa/7mr/AM7SgD4ToAKACgAoA+6P+CXn/H/8Rv8ArjpX/oV1QB98UAFABQAUAFAHyR+3t+0W3w+8Kj4U+EdRMfiLxFCWvpoZMPY2JOCMjkPLyo9FDHupoA/NagAoA/Qf9h79rc+IYrL4LfE3U1/tSFBBoOpzvzdoOFtZGP8Ay1A4Rj98AL94DeAfbNABQBk+LPFOh+CPDWp+LvEt6tppek2z3V1M38KKM4A7seAAOSSAOTQB+OXxw+LmufG34jan471ovGlw/k2FqWyLS0Unyoh2yAck92Zj3oA4KgAoAKACgAoAKACgD9L/ANgn9oY/EXwafhZ4pvd/iLwtbqLOR/vXunDCqc93iJVD0ypjPJ3GgD6xoAKACgAoAKAPgv8A4Ki/6/4a/wC5q/8AO0oA+E6ACgAoAKAPuj/gl5/x/wDxG/646V/6FdUAffFABQAUAFAHH/Fr4neH/g/4B1Xx94jfNvp0X7qBWAe5nbiOFM/xM2B7DJ6A0Afjd498ceIfiT4w1Xxx4pu/tGp6vcGeZhwq9lRR2RVCqo7BQKAMCgAoAdDNNbzJcW8rxSxMHR0YqysDkEEcgg96AP07/Yy/auj+MekL4A8dX0aeNdMhzHM5CjVoF6yKOnmqB86jqPnHG4KAfUdAH51/8FBf2hh4o14fBPwpfbtK0SYS61LG3Fxej7sOQeVjzkj+/wC6CgD4zoAKACgAoAKACgAoAKAOh+HvjzxD8MvGek+OvC115GpaRcCeLOdsi9HjcDqjqWVh3DGgD9kfhR8TPD3xf8A6T4/8NSf6LqUOZIGbL2068SQv/tKwIz3GCOCDQB11ABQAUAFAHwX/AMFRf9f8Nf8Ac1f+dpQB8J0AFABQAUAfdH/BLz/j/wDiN/1x0r/0K6oA++KACgAoAQkAEk4A6mgD8s/23P2hf+Fw/ED/AIRXw5eiTwp4XkeG2ZD8t5ddJLj3UfcT2BI+9QB82UAFABQAUAXdE1rVvDer2ev6DqE9jqOnzJcWtzC214pFOVYH1BoA+8rv/goVp19+z7dX8SLZ/EwqNMFsifuhKynN9H22BQTtPKvhTlcMQD4Eubm4vLiW7u5nmnndpJZHYszuTksSepJOc0AR0AFABQAUAFABQAUAFABQB9LfsQftEf8ACn/Hv/CIeJb4R+E/FMyRXDyMdljd42xXA7BTwjnjjaxOEwQD9SqACgAoAKAPgv8A4Ki/6/4a/wC5q/8AO0oA+E6ACgAoAKAPuj/gl5/x/wDxG/646V/6FdUAffFABQAUAfK/7d37Qx+GPgkfDrwvfBPEviiBlleM/PZ2ByryezOcovsHPBAoA/MegAoAKACgAoAKACgAoAKACgAoAKACgAoAKACgAoAKAP07/YT/AGh/+FoeB/8AhXfii+3+J/C0CJG8jZe+sBhUkyeWdOEc+6EkljQB9S0AFABQB8F/8FRf9f8ADX/c1f8AnaUAfCdABQAUAFAH3R/wS8/4/wD4jf8AXHSv/QrqgD74oAKAOU+KPxH8PfCbwLq3j3xNOFs9MhLrEGAe4lPEcKZ6s7YA9M5PANAH44fEn4g+IPin431bx54nuDJf6rOZSoJKwx9EiTPRUUBR7D1oA5mgAoAKACgAoAKACgAoAKACgAoAKACgAoAKACgAoAKAOm+GvxC8RfCvxvpXjzwtcCPUNKm8xVb7kyEbXicd1dSynvzkYODQB+yPwx+I3h34seBtJ8feF5i1jqkO/wAt8b4JAdskTjsysCp7HGRkEGgDqaACgD4L/wCCov8Ar/hr/uav/O0oA+E6ACgAoAKAPuj/AIJef8f/AMRv+uOlf+hXVAH3xQAUAfmD+3Z+0Kfil46Hw/8ADN8X8L+FZmRmjbKXt+MrJLkHDKgJRP8AgZ6MKAPl2gAoAKACgAoAKACgAoAKACgAoAKACgAoAKACgAoAKACgAoA+n/2GP2iB8KPHR8CeKL4R+FvFMyRmSRsJY3xwsc2egRuEc/7jEgIcgH6g0AFAHwX/AMFRf9f8Nf8Ac1f+dpQB8J0AFABQAUAfdH/BLz/j/wDiN/1x0r/0K6oA++KAOP8Ai14e8a+LPAGq+GfAGv2miatqcX2Uahco7C3ibiRkC87yuQD2znqBQB8Qf8OxfHf/AEU/Qf8AwDmoAP8Ah2L47/6KfoP/AIBzUAH/AA7F8d/9FP0H/wAA5qAD/h2L47/6KfoP/gHNQAf8OxfHf/RT9B/8A5qAD/h2L47/AOin6D/4BzUAH/DsXx3/ANFP0H/wDmoAP+HYvjv/AKKfoP8A4BzUAH/DsXx3/wBFP0H/AMA5qAD/AIdi+O/+in6D/wCAc1AB/wAOxfHf/RT9B/8AAOagA/4di+O/+in6D/4BzUAH/DsXx3/0U/Qf/AOagA/4di+O/wDop+g/+Ac1AB/w7F8d/wDRT9B/8A5qAD/h2L47/wCin6D/AOAc1AB/w7F8d/8ART9B/wDAOagA/wCHYvjv/op+g/8AgHNQAf8ADsXx3/0U/Qf/AADmoAP+HYvjv/op+g/+Ac1AB/w7F8d/9FP0H/wDmoAP+HYvjv8A6KfoP/gHNQB9ufCHw5438IfD/SvC3xA8Q2mu6rpUX2Uajbq6/aIF4jMgbkuFwpPO7buJyTQB2dAHwX/wVF/1/wANf9zV/wCdpQB8J0AFABQAUAfdH/BLz/j/APiN/wBcdK/9CuqAPvigAoAKACgAoAKACgAoAKACgAoAKACgAoAKACgAoAKACgAoAKACgAoAKACgAoA+C/8AgqL/AK/4a/7mr/ztKAPhOgAoAKACgD7o/wCCXn/H/wDEb/rjpX/oV1QB98UAFABQAUAFABQAUAFABQAUAFABQAUAFABQAUAFABQAUAFABQAUAFABQAUAFAHwX/wVF/1/w1/3NX/naUAfCdABQAUAFAH05+xN+0L8PfgJdeL5vHp1ILrcditr9ithNzEZ9+75hj/WLj8aAPqb/h4n+zv/AH/Ev/gsH/xdAB/w8T/Z3/v+Jf8AwWD/AOLoAP8Ah4n+zv8A3/Ev/gsH/wAXQAf8PE/2d/7/AIl/8Fg/+LoAP+Hif7O/9/xL/wCCwf8AxdAB/wAPE/2d/wC/4l/8Fg/+LoAP+Hif7O/9/wAS/wDgsH/xdAB/w8T/AGd/7/iX/wAFg/8Ai6AD/h4n+zv/AH/Ev/gsH/xdAB/w8T/Z3/v+Jf8AwWD/AOLoAP8Ah4n+zv8A3/Ev/gsH/wAXQAf8PE/2d/7/AIl/8Fg/+LoAP+Hif7O/9/xL/wCCwf8AxdAB/wAPE/2d/wC/4l/8Fg/+LoAP+Hif7O/9/wAS/wDgsH/xdAB/w8T/AGd/7/iX/wAFg/8Ai6AD/h4n+zv/AH/Ev/gsH/xdAB/w8T/Z3/v+Jf8AwWD/AOLoAP8Ah4n+zv8A3/Ev/gsH/wAXQAf8PE/2d/7/AIl/8Fg/+LoAP+Hif7O/9/xL/wCCwf8AxdAB/wAPE/2d/wC/4l/8Fg/+LoAP+Hif7O/9/wAS/wDgsH/xdAB/w8T/AGd/7/iX/wAFg/8Ai6AD/h4n+zv/AH/Ev/gsH/xdAB/w8T/Z3/v+Jf8AwWD/AOLoA+W/22v2iPh58fJfBzeAjqZGhrqAuvttsIf9cbfZt+Y5/wBU2fwoA+YaACgAoAKACgAoAKACgAoAKACgAoAKACgAoAKACgAoAKACgAoAKACgAoAKACgAoAKACgAoAKACgAoAKACgAoAKACgAoAKACgAoAKACgAoAKACgAoAKACgAoAKACgAoAKACgAoAKACgAoAKACgAoAKACgAoA/Yn/hlT9nT/AKJB4d/8Bz/jQAf8Mqfs6f8ARIPDv/gOf8aAD/hlT9nT/okHh3/wHP8AjQAf8Mqfs6f9Eg8O/wDgOf8AGgA/4ZU/Z0/6JB4d/wDAc/40AH/DKn7On/RIPDv/AIDn/GgA/wCGVP2dP+iQeHf/AAHP+NAB/wAMqfs6f9Eg8O/+A5/xoAP+GVP2dP8AokHh3/wHP+NAB/wyp+zp/wBEg8O/+A5/xoAP+GVP2dP+iQeHf/Ac/wCNAB/wyp+zp/0SDw7/AOA5/wAaAD/hlT9nT/okHh3/AMBz/jQAf8Mqfs6f9Eg8O/8AgOf8aAD/AIZU/Z0/6JB4d/8AAc/40AH/AAyp+zp/0SDw7/4Dn/GgA/4ZU/Z0/wCiQeHf/Ac/40AH/DKn7On/AESDw7/4Dn/GgA/4ZU/Z0/6JB4d/8Bz/AI0AH/DKn7On/RIPDv8A4Dn/ABoAP+GVP2dP+iQeHf8AwHP+NAB/wyp+zp/0SDw7/wCA5/xoAP8AhlT9nT/okHh3/wABz/jQAf8ADKn7On/RIPDv/gOf8aAD/hlT9nT/AKJB4d/8Bz/jQAf8Mqfs6f8ARIPDv/gOf8aAD/hlT9nT/okHh3/wHP8AjQAf8Mqfs6f9Eg8O/wDgOf8AGgA/4ZU/Z0/6JB4d/wDAc/40AH/DKn7On/RIPDv/AIDn/GgA/wCGVP2dP+iQeHf/AAHP+NAB/wAMqfs6f9Eg8O/+A5/xoA9XoAKACgAoAKACgAoAKACgAoAKACgAoAKACgAoAKACgAoAKACgAoAKACgAoAKACgAoAKACgAoAKACgAoAKACgAoAKACgAoAKACgAoAKACgAoAKACgAoAKACgAoAKACgAoAKACgAoAKACgAoAKACgAoA//Z;" parent="1" vertex="1">
                    <mxGeometry x="60" y="755" width="80" height="80" as="geometry"/>
                </mxCell>
                <mxCell id="KBqEdn5SgZ5WZnfKdi-t-62" value="" style="shape=image;verticalLabelPosition=bottom;labelBackgroundColor=default;verticalAlign=top;aspect=fixed;imageAspect=0;image=data:image/jpeg,/9j/4AAQSkZJRgABAQAAAQABAAD/2wBDAAMCAgICAgMCAgIDAwMDBAYEBAQEBAgGBgUGCQgKCgkICQkKDA8MCgsOCwkJDRENDg8QEBEQCgwSExIQEw8QEBD/2wBDAQMDAwQDBAgEBAgQCwkLEBAQEBAQEBAQEBAQEBAQEBAQEBAQEBAQEBAQEBAQEBAQEBAQEBAQEBAQEBAQEBAQEBD/wAARCAEAAQADAREAAhEBAxEB/8QAHwAAAQUBAQEBAQEAAAAAAAAAAAECAwQFBgcICQoL/8QAtRAAAgEDAwIEAwUFBAQAAAF9AQIDAAQRBRIhMUEGE1FhByJxFDKBkaEII0KxwRVS0fAkM2JyggkKFhcYGRolJicoKSo0NTY3ODk6Q0RFRkdISUpTVFVWV1hZWmNkZWZnaGlqc3R1dnd4eXqDhIWGh4iJipKTlJWWl5iZmqKjpKWmp6ipqrKztLW2t7i5usLDxMXGx8jJytLT1NXW19jZ2uHi4+Tl5ufo6erx8vP09fb3+Pn6/8QAHwEAAwEBAQEBAQEBAQAAAAAAAAECAwQFBgcICQoL/8QAtREAAgECBAQDBAcFBAQAAQJ3AAECAxEEBSExBhJBUQdhcRMiMoEIFEKRobHBCSMzUvAVYnLRChYkNOEl8RcYGRomJygpKjU2Nzg5OkNERUZHSElKU1RVVldYWVpjZGVmZ2hpanN0dXZ3eHl6goOEhYaHiImKkpOUlZaXmJmaoqOkpaanqKmqsrO0tba3uLm6wsPExcbHyMnK0tPU1dbX2Nna4uPk5ebn6Onq8vP09fb3+Pn6/9oADAMBAAIRAxEAPwD9U6ACgAoAKACgAoAKACgAoAKACgAoAKACgAoAKACgAoAKACgAoAKACgAoAKACgAoAKACgAoAKACgAoAKACgAoAKACgAoAKACgAoAKACgAoAKACgAoAKACgAoAKACgAoAKACgAoAKACgAoAKACgAoAKAPLP+Gpf2d/+iweGv8AwMFAB/w1L+zv/wBFg8Nf+BgoAP8AhqX9nf8A6LB4a/8AAwUAH/DUv7O//RYPDX/gYKAD/hqX9nf/AKLB4a/8DBQAf8NS/s7/APRYPDX/AIGCgA/4al/Z3/6LB4a/8DBQAf8ADUv7O/8A0WDw1/4GCgA/4al/Z3/6LB4a/wDAwUAH/DUv7O//AEWDw1/4GCgA/wCGpf2d/wDosHhr/wADBQAf8NS/s7/9Fg8Nf+BgoAP+Gpf2d/8AosHhr/wMFAB/w1L+zv8A9Fg8Nf8AgYKAD/hqX9nf/osHhr/wMFAB/wANS/s7/wDRYPDX/gYKAD/hqX9nf/osHhr/AMDBQAf8NS/s7/8ARYPDX/gYKAD/AIal/Z3/AOiweGv/AAMFAB/w1L+zv/0WDw1/4GCgA/4al/Z3/wCiweGv/AwUAH/DUv7O/wD0WDw1/wCBgoAP+Gpf2d/+iweGv/AwUAH/AA1L+zv/ANFg8Nf+BgoAP+Gpf2d/+iweGv8AwMFAB/w1L+zv/wBFg8Nf+BgoAP8AhqX9nf8A6LB4a/8AAwUAH/DUv7O//RYPDX/gYKAD/hqX9nf/AKLB4a/8DBQAf8NS/s7/APRYPDX/AIGCgA/4al/Z3/6LB4a/8DBQAf8ADUv7O/8A0WDw1/4GCgD8cqACgAoAKACgAoAKACgAoAKACgAoAKACgAoAKACgAoAKACgAoAKACgAoAKACgAoAKACgAoAKACgAoAKACgAoAKACgAoAKACgAoAKACgAoAKACgAoAKACgAoAKACgAoAKACgAoAKACgAoAKACgAoAKACgAoA+mv2KP2ePh98fbnxfD48OqBdEjsWtfsNyITmUzh92VbP+rXH40AfUv/Duj9nr/np4p/8ABmn/AMboAP8Ah3R+z1/z08U/+DNP/jdAB/w7o/Z6/wCenin/AMGaf/G6AD/h3R+z1/z08U/+DNP/AI3QAf8ADuj9nr/np4p/8Gaf/G6AD/h3R+z1/wA9PFP/AIM0/wDjdAB/w7o/Z6/56eKf/Bmn/wAboAP+HdH7PX/PTxT/AODNP/jdAB/w7o/Z6/56eKf/AAZp/wDG6AD/AId0fs9f89PFP/gzT/43QAf8O6P2ev8Anp4p/wDBmn/xugA/4d0fs9f89PFP/gzT/wCN0AH/AA7o/Z6/56eKf/Bmn/xugA/4d0fs9f8APTxT/wCDNP8A43QAf8O6P2ev+enin/wZp/8AG6AD/h3R+z1/z08U/wDgzT/43QAf8O6P2ev+enin/wAGaf8AxugA/wCHdH7PX/PTxT/4M0/+N0AH/Duj9nr/AJ6eKf8AwZp/8boAP+HdH7PX/PTxT/4M0/8AjdAB/wAO6P2ev+enin/wZp/8boAP+HdH7PX/AD08U/8AgzT/AON0AH/Duj9nr/np4p/8Gaf/ABugA/4d0fs9f89PFP8A4M0/+N0AH/Duj9nr/np4p/8ABmn/AMboAP8Ah3R+z1/z08U/+DNP/jdAHy7+2x+zt8PfgDJ4OTwG2qEa4uoG6+3XIm/1P2fZtwq4/wBa2fwoA+YqACgAoAKAPuj/AIJef8f/AMRv+uOlf+hXVAH3xQAUAFABQAUAFABQAUAFABQAUAFABQAUAFABQAUAFABQAUAFABQAUAFABQAUAfBf/BUX/X/DX/c1f+dpQB8J0AFABQAUAfdH/BLz/j/+I3/XHSv/AEK6oA++KACgAoAKACgAoAKACgAoAKACgAoAKACgAoAKACgAoAKACgAoAKACgAoAKACgD4L/AOCov+v+Gv8Auav/ADtKAPhOgAoAKACgD7o/4Jef8f8A8Rv+uOlf+hXVAH3xQAUAFABQAUAFAEN3eWmn20l5f3UNtbxDdJLM4REHqWPAFAHk3iD9rr9m/wAM3MtnqfxY0l5YTtcWSTXgB9A0COD+BoAs+Fv2qP2evGV1HZaF8VtFM8wzHHeM9kWPoPPVMt7dfagD1VWV1DowZWGQQcgigBaACgAoAKACgAoAKACgAoAKACgAoAKACgAoAKAPgv8A4Ki/6/4a/wC5q/8AO0oA+E6ACgAoAKAPuj/gl5/x/wDxG/646V/6FdUAffFABQAUAFABQBxfxe+K/hb4L+Br7x14snIt7YCO3t0I827uGB2Qxg9WOD9AGJ4BoA/Kn44/tKfEr46azcT+INXms9E8wm00S2lK2sCZ+XcBjzX9XbJz02jAAB5TQAUAe7/s8ftc/EP4G6na6dd31zrvhAsEuNIuJSxgj7tbMx/dMOu37jc5AJDAA/U7wX4y8OfEHwtp3jLwnqUd/pOqwie3mTuOhVh1VlIKsp5DAg8igDboAKACgAoAKACgAoAKACgAoAKACgAoAKACgD4L/wCCov8Ar/hr/uav/O0oA+E6ACgAoAKAPuj/AIJef8f/AMRv+uOlf+hXVAH3xQAUAFABQAUAfmD/AMFBfipfeM/jK/gW3uidI8HRLbpEpO17uRVeaQ+pGVT22H1NAHy7QAUAFABQB9u/8E1vitd2uv658HdRuwbK9gbWNNVzylwhVZkX/eQq2On7onucgH6B0AFABQAUAFABQAUAFABQAUAFABQAUAFABQB8F/8ABUX/AF/w1/3NX/naUAfCdABQAUAFAH3R/wAEvP8Aj/8AiN/1x0r/ANCuqAPvigAoAKACgAoA/Fr49y3M/wAcfiFJeYEx8UaoGA6DF1IAB7YFAHCUAFABQAUAe6fsQS3EX7UPgr7MMl3vkYeqGxn3fkOfwoA/WygAoAKACgAoAKACgAoAKACgAoAKACgAoAKAPgv/AIKi/wCv+Gv+5q/87SgD4ToAKACgAoA+6P8Agl5/x/8AxG/646V/6FdUAffFABQAUAFABQB+Un7dXw4u/Anx+1jVVt2XTfFYXWLSTHDOwCzrn+8JQ5x2Dr60AfPVABQAUAFAH19/wTd+HV5rXxR1T4j3Fq39n+HLB7aGY8A3k+FCj1xF5ufTcvqKAP0ioAKACgAoA+Rf2gf2/tA+G2vXXgz4baHb+JdVsXMV5fXExWyglHVFCfNMQeCQygEYBPOADyXwl/wU0+Idtqaf8Jx4A8P6hpzMAw0tprSdATyQZHlVsDoMLnHUZyAD7q+GfxL8IfFzwdZeOPBOo/atOvAVKuAstvKv34ZUydjr3HQggglSCQDqqACgAoAKACgAoAKACgD4L/4Ki/6/4a/7mr/ztKAPhOgAoAKACgD7o/4Jef8AH/8AEb/rjpX/AKFdUAffFABQAUAFABQB5P8AtJfAHRP2gfAMnh26kitNasC1xouoODi3nIGVbHJjcAKwwccMASooA/Jv4hfDrxj8LfE914R8caLPpuo2p6OMpMmeJI36Oh7MPp1BFAHN0AFAHe/Bz4KeO/jh4oj8NeC9NLqpDXl9KCttZxf35G/ko5J6CgD9bvg98KPDXwX8Baf4E8MRlobRd9xcuB5l1cNjfK+O5PQdgAO1AHa0AFABQB85/trftCD4M/Ds+H/D16Y/FniiN7exKH5rS34EtwfQ4O1P9o5GdhoA/Kskkkk5J6mgAoA+hf2Mf2hW+CfxFXSvEN+0fhHxIy22oh2/d2k3SK6x22n5X/2GJOSiigD9WlZXUOjBlYZBByCKAFoAKACgAoAKACgAoA+C/wDgqL/r/hr/ALmr/wA7SgD4ToAKACgAoA+6P+CXn/H/APEb/rjpX/oV1QB98UAFABQAUAFABQBzfjr4ceBPibo50Hx94W0/W7IEsiXUWWhYjBaNxh42xxuQg470AfOfiH/gm58DtUuHudE1zxTou7G2CK7inhT6CSMv+bmgC74W/wCCdXwC0G6jvNYn8R+IShyYL6+SOFvwgRG/8eoA+jfC/hLwx4J0eHQPCOgWGj6dB9y2s4FiQHuSAOSe5PJ70Aa1ABQAUAYfjfxloPw98J6p408T3gttM0m3a4nc9SB0VR3ZiQoHckCgD8cPjJ8VNf8AjN8QtU8e+IG2yXsmy2twfltbZciOJfYDqe7Fj3oA4qgAoAKAP0o/YF/aHPj7wkfhL4pvS+v+GrcNYSyNlrvT1woGT1eIkKfVCnXDGgD64oAKACgAoAKACgAoA+C/+Cov+v8Ahr/uav8AztKAPhOgAoAKACgD7o/4Jef8f/xG/wCuOlf+hXVAH3xQAUAFABQAUAFABQAUAFABQAUAFABQB+bv7fn7RH/CbeJ/+FQeFL7dofh6cnVJI2+W6v1yNnusXI/3y390GgD5BoAKACgAoA3fAvjXX/h14v0rxt4Yu/s+p6PcrcwNztbH3kYAjKMpKsO6sRQB+x/we+Kfh/4y/D7SvH3h2QCK+j23FuTl7W5UASwt7q3fuCrDgigDtKACgAoAKACgAoA+C/8AgqL/AK/4a/7mr/ztKAPhOgAoAKACgD7o/wCCXn/H/wDEb/rjpX/oV1QB98UAFABQAUAFACEgAknAHU0AfNvxR/b3+Cfw51mbw9px1HxVfWzNHO2kqhtonBwUMzsAx90DD3zxQA/4U/t5fBb4ma3B4avv7R8LalduI7b+1VT7PPIThUWZGIVj/thQegJJAoA+kKACgAoAKAPAP2xv2hI/gf8ADl7LQrtF8WeIle10xQ3z2yYxJdEf7AOF9XK9QGoA/KCSSSWRpZXZ3clmZjksT1JPc0ANoAKACgAoAKAPoz9ir9og/Bf4gDw94jvinhHxNIkF6Xb5LK46R3PPAHO1+nynJzsAoA/VSgAoAKACgAoAKAPgv/gqL/r/AIa/7mr/AM7SgD4ToAKACgAoA+6P+CXn/H/8Rv8ArjpX/oV1QB98UAFABQAUAFAHyR+3t+0W3w+8Kj4U+EdRMfiLxFCWvpoZMPY2JOCMjkPLyo9FDHupoA/NagAoA/Qf9h79rc+IYrL4LfE3U1/tSFBBoOpzvzdoOFtZGP8Ay1A4Rj98AL94DeAfbNABQBk+LPFOh+CPDWp+LvEt6tppek2z3V1M38KKM4A7seAAOSSAOTQB+OXxw+LmufG34jan471ovGlw/k2FqWyLS0Unyoh2yAck92Zj3oA4KgAoAKACgAoAKACgD9L/ANgn9oY/EXwafhZ4pvd/iLwtbqLOR/vXunDCqc93iJVD0ypjPJ3GgD6xoAKACgAoAKAPgv8A4Ki/6/4a/wC5q/8AO0oA+E6ACgAoAKAPuj/gl5/x/wDxG/646V/6FdUAffFABQAUAFAHH/Fr4neH/g/4B1Xx94jfNvp0X7qBWAe5nbiOFM/xM2B7DJ6A0Afjd498ceIfiT4w1Xxx4pu/tGp6vcGeZhwq9lRR2RVCqo7BQKAMCgAoAdDNNbzJcW8rxSxMHR0YqysDkEEcgg96AP07/Yy/auj+MekL4A8dX0aeNdMhzHM5CjVoF6yKOnmqB86jqPnHG4KAfUdAH51/8FBf2hh4o14fBPwpfbtK0SYS61LG3Fxej7sOQeVjzkj+/wC6CgD4zoAKACgAoAKACgAoAKAOh+HvjzxD8MvGek+OvC115GpaRcCeLOdsi9HjcDqjqWVh3DGgD9kfhR8TPD3xf8A6T4/8NSf6LqUOZIGbL2068SQv/tKwIz3GCOCDQB11ABQAUAFAHwX/AMFRf9f8Nf8Ac1f+dpQB8J0AFABQAUAfdH/BLz/j/wDiN/1x0r/0K6oA++KACgAoAQkAEk4A6mgD8s/23P2hf+Fw/ED/AIRXw5eiTwp4XkeG2ZD8t5ddJLj3UfcT2BI+9QB82UAFABQAUAXdE1rVvDer2ev6DqE9jqOnzJcWtzC214pFOVYH1BoA+8rv/goVp19+z7dX8SLZ/EwqNMFsifuhKynN9H22BQTtPKvhTlcMQD4Eubm4vLiW7u5nmnndpJZHYszuTksSepJOc0AR0AFABQAUAFABQAUAFABQB9LfsQftEf8ACn/Hv/CIeJb4R+E/FMyRXDyMdljd42xXA7BTwjnjjaxOEwQD9SqACgAoAKAPgv8A4Ki/6/4a/wC5q/8AO0oA+E6ACgAoAKAPuj/gl5/x/wDxG/646V/6FdUAffFABQAUAfK/7d37Qx+GPgkfDrwvfBPEviiBlleM/PZ2ByryezOcovsHPBAoA/MegAoAKACgAoAKACgAoAKACgAoAKACgAoAKACgAoAKAP07/YT/AGh/+FoeB/8AhXfii+3+J/C0CJG8jZe+sBhUkyeWdOEc+6EkljQB9S0AFABQB8F/8FRf9f8ADX/c1f8AnaUAfCdABQAUAFAH3R/wS8/4/wD4jf8AXHSv/QrqgD74oAKAOU+KPxH8PfCbwLq3j3xNOFs9MhLrEGAe4lPEcKZ6s7YA9M5PANAH44fEn4g+IPin431bx54nuDJf6rOZSoJKwx9EiTPRUUBR7D1oA5mgAoAKACgAoAKACgAoAKACgAoAKACgAoAKACgAoAKAOm+GvxC8RfCvxvpXjzwtcCPUNKm8xVb7kyEbXicd1dSynvzkYODQB+yPwx+I3h34seBtJ8feF5i1jqkO/wAt8b4JAdskTjsysCp7HGRkEGgDqaACgD4L/wCCov8Ar/hr/uav/O0oA+E6ACgAoAKAPuj/AIJef8f/AMRv+uOlf+hXVAH3xQAUAfmD+3Z+0Kfil46Hw/8ADN8X8L+FZmRmjbKXt+MrJLkHDKgJRP8AgZ6MKAPl2gAoAKACgAoAKACgAoAKACgAoAKACgAoAKACgAoAKACgAoA+n/2GP2iB8KPHR8CeKL4R+FvFMyRmSRsJY3xwsc2egRuEc/7jEgIcgH6g0AFAHwX/AMFRf9f8Nf8Ac1f+dpQB8J0AFABQAUAfdH/BLz/j/wDiN/1x0r/0K6oA++KAOP8Ai14e8a+LPAGq+GfAGv2miatqcX2Uahco7C3ibiRkC87yuQD2znqBQB8Qf8OxfHf/AEU/Qf8AwDmoAP8Ah2L47/6KfoP/AIBzUAH/AA7F8d/9FP0H/wAA5qAD/h2L47/6KfoP/gHNQAf8OxfHf/RT9B/8A5qAD/h2L47/AOin6D/4BzUAH/DsXx3/ANFP0H/wDmoAP+HYvjv/AKKfoP8A4BzUAH/DsXx3/wBFP0H/AMA5qAD/AIdi+O/+in6D/wCAc1AB/wAOxfHf/RT9B/8AAOagA/4di+O/+in6D/4BzUAH/DsXx3/0U/Qf/AOagA/4di+O/wDop+g/+Ac1AB/w7F8d/wDRT9B/8A5qAD/h2L47/wCin6D/AOAc1AB/w7F8d/8ART9B/wDAOagA/wCHYvjv/op+g/8AgHNQAf8ADsXx3/0U/Qf/AADmoAP+HYvjv/op+g/+Ac1AB/w7F8d/9FP0H/wDmoAP+HYvjv8A6KfoP/gHNQB9ufCHw5438IfD/SvC3xA8Q2mu6rpUX2Uajbq6/aIF4jMgbkuFwpPO7buJyTQB2dAHwX/wVF/1/wANf9zV/wCdpQB8J0AFABQAUAfdH/BLz/j/APiN/wBcdK/9CuqAPvigAoAKACgAoAKACgAoAKACgAoAKACgAoAKACgAoAKACgAoAKACgAoAKACgAoA+C/8AgqL/AK/4a/7mr/ztKAPhOgAoAKACgD7o/wCCXn/H/wDEb/rjpX/oV1QB98UAFABQAUAFABQAUAFABQAUAFABQAUAFABQAUAFABQAUAFABQAUAFABQAUAFAHwX/wVF/1/w1/3NX/naUAfCdABQAUAFAH05+xN+0L8PfgJdeL5vHp1ILrcditr9ithNzEZ9+75hj/WLj8aAPqb/h4n+zv/AH/Ev/gsH/xdAB/w8T/Z3/v+Jf8AwWD/AOLoAP8Ah4n+zv8A3/Ev/gsH/wAXQAf8PE/2d/7/AIl/8Fg/+LoAP+Hif7O/9/xL/wCCwf8AxdAB/wAPE/2d/wC/4l/8Fg/+LoAP+Hif7O/9/wAS/wDgsH/xdAB/w8T/AGd/7/iX/wAFg/8Ai6AD/h4n+zv/AH/Ev/gsH/xdAB/w8T/Z3/v+Jf8AwWD/AOLoAP8Ah4n+zv8A3/Ev/gsH/wAXQAf8PE/2d/7/AIl/8Fg/+LoAP+Hif7O/9/xL/wCCwf8AxdAB/wAPE/2d/wC/4l/8Fg/+LoAP+Hif7O/9/wAS/wDgsH/xdAB/w8T/AGd/7/iX/wAFg/8Ai6AD/h4n+zv/AH/Ev/gsH/xdAB/w8T/Z3/v+Jf8AwWD/AOLoAP8Ah4n+zv8A3/Ev/gsH/wAXQAf8PE/2d/7/AIl/8Fg/+LoAP+Hif7O/9/xL/wCCwf8AxdAB/wAPE/2d/wC/4l/8Fg/+LoAP+Hif7O/9/wAS/wDgsH/xdAB/w8T/AGd/7/iX/wAFg/8Ai6AD/h4n+zv/AH/Ev/gsH/xdAB/w8T/Z3/v+Jf8AwWD/AOLoA+W/22v2iPh58fJfBzeAjqZGhrqAuvttsIf9cbfZt+Y5/wBU2fwoA+YaACgAoAKACgAoAKACgAoAKACgAoAKACgAoAKACgAoAKACgAoAKACgAoAKACgAoAKACgAoAKACgAoAKACgAoAKACgAoAKACgAoAKACgAoAKACgAoAKACgAoAKACgAoAKACgAoAKACgAoAKACgAoAKACgAoA/Yn/hlT9nT/AKJB4d/8Bz/jQAf8Mqfs6f8ARIPDv/gOf8aAD/hlT9nT/okHh3/wHP8AjQAf8Mqfs6f9Eg8O/wDgOf8AGgA/4ZU/Z0/6JB4d/wDAc/40AH/DKn7On/RIPDv/AIDn/GgA/wCGVP2dP+iQeHf/AAHP+NAB/wAMqfs6f9Eg8O/+A5/xoAP+GVP2dP8AokHh3/wHP+NAB/wyp+zp/wBEg8O/+A5/xoAP+GVP2dP+iQeHf/Ac/wCNAB/wyp+zp/0SDw7/AOA5/wAaAD/hlT9nT/okHh3/AMBz/jQAf8Mqfs6f9Eg8O/8AgOf8aAD/AIZU/Z0/6JB4d/8AAc/40AH/AAyp+zp/0SDw7/4Dn/GgA/4ZU/Z0/wCiQeHf/Ac/40AH/DKn7On/AESDw7/4Dn/GgA/4ZU/Z0/6JB4d/8Bz/AI0AH/DKn7On/RIPDv8A4Dn/ABoAP+GVP2dP+iQeHf8AwHP+NAB/wyp+zp/0SDw7/wCA5/xoAP8AhlT9nT/okHh3/wABz/jQAf8ADKn7On/RIPDv/gOf8aAD/hlT9nT/AKJB4d/8Bz/jQAf8Mqfs6f8ARIPDv/gOf8aAD/hlT9nT/okHh3/wHP8AjQAf8Mqfs6f9Eg8O/wDgOf8AGgA/4ZU/Z0/6JB4d/wDAc/40AH/DKn7On/RIPDv/AIDn/GgA/wCGVP2dP+iQeHf/AAHP+NAB/wAMqfs6f9Eg8O/+A5/xoA9XoAKACgAoAKACgAoAKACgAoAKACgAoAKACgAoAKACgAoAKACgAoAKACgAoAKACgAoAKACgAoAKACgAoAKACgAoAKACgAoAKACgAoAKACgAoAKACgAoAKACgAoAKACgAoAKACgAoAKACgAoAKACgAoA//Z;" parent="1" vertex="1">
                    <mxGeometry x="60" y="900" width="80" height="80" as="geometry"/>
                </mxCell>
                <mxCell id="KBqEdn5SgZ5WZnfKdi-t-66" value="" style="endArrow=classic;html=1;rounded=0;" parent="1" edge="1">
                    <mxGeometry width="50" height="50" relative="1" as="geometry">
                        <mxPoint x="150" y="939.5" as="sourcePoint"/>
                        <mxPoint x="220" y="939.5" as="targetPoint"/>
                    </mxGeometry>
                </mxCell>
                <mxCell id="KBqEdn5SgZ5WZnfKdi-t-67" value="" style="endArrow=classic;html=1;rounded=0;" parent="1" edge="1">
                    <mxGeometry width="50" height="50" relative="1" as="geometry">
                        <mxPoint x="150" y="1040" as="sourcePoint"/>
                        <mxPoint x="220" y="1040" as="targetPoint"/>
                    </mxGeometry>
                </mxCell>
                <mxCell id="KBqEdn5SgZ5WZnfKdi-t-68" value="下の図のように表示" style="rounded=0;whiteSpace=wrap;html=1;fillColor=none;strokeColor=none;" parent="1" vertex="1">
                    <mxGeometry x="210" y="1109" width="120" height="60" as="geometry"/>
                </mxCell>
                <mxCell id="KBqEdn5SgZ5WZnfKdi-t-71" value="&lt;div style=&quot;font-size: 20px;&quot;&gt;&lt;font style=&quot;font-size: 20px;&quot;&gt;左が他人&lt;font style=&quot;font-size: 20px;&quot;&gt;&lt;br&gt;&lt;/font&gt;&lt;/font&gt;&lt;/div&gt;" style="rounded=0;whiteSpace=wrap;html=1;fillColor=none;strokeColor=none;" parent="1" vertex="1">
                    <mxGeometry x="414" y="10" width="100" height="60" as="geometry"/>
                </mxCell>
                <mxCell id="KBqEdn5SgZ5WZnfKdi-t-72" value="&lt;div style=&quot;font-size: 20px;&quot;&gt;&lt;font style=&quot;font-size: 20px;&quot;&gt;右が自分&lt;/font&gt;&lt;/div&gt;" style="rounded=0;whiteSpace=wrap;html=1;fillColor=none;strokeColor=none;" parent="1" vertex="1">
                    <mxGeometry x="690" y="10" width="110" height="60" as="geometry"/>
                </mxCell>
                <mxCell id="KBqEdn5SgZ5WZnfKdi-t-73" value="" style="shape=image;verticalLabelPosition=bottom;labelBackgroundColor=default;verticalAlign=top;aspect=fixed;imageAspect=0;image=data:image/png,iVBORw0KGgoAAAANSUhEUgAAAjcAAAI3CAMAAABQ9oqcAAAAM1BMVEUAAAAAAAAAAAAAAAAAAAAAAAAAAAAAAAAAAAAAAAAAAAAAAAAAAAAAAAAAAAAAAAAAAACjBUbJAAAAEHRSTlMAECAwQFBgcICPn6+/z9/vIxqCigAAEidJREFUeNrtnWuCpCoSRlNFRUVx/6udHz13prpudYsIIQTnLCBT8SNeBPD5AAAAAAAAAAAAAAAAAAAAAAAAAAAAAAAAAAAAAAAAAAAAAAAAAAAAAAAAAAAAAAAAAAAAAAAAAAAAAAAAAAAAAAAAAAAAAAAAAAAAAAAAAAAAAAAAAAAAAAAAAAAAAAAAAAAAAAAAgAoGY6y1m3NuP7+zO+c2a60xAwMFn8/n8zGjXZw7w3FuscYwcK3SmXlx/ozlcMuMetqiH607zhQcmzUdA9qCX5q3NJL5Kh4sj27NWHfmwlm0ozJfyqiZ/2lnJt9SFQJPqz9lONaReEdHEDy7U5Zt7hn22kWzn2+wIx1EEysdHFaVMY0732ab+A6VZdxigfDf8SsZVj2mZj7OcsBf1WJqzsLA6JTPtJ8l4oh0SnZQ9jhL5cBdlZp2FxIL/9FdWWo6JarmLJ8V5aAalINqUA6qQTkQkEPVpprzPE9LbvV25u3PGvGWb/dmle84a+UY+XwvYfazZhyrDwQ2USyEOeLM/qwfz7IVLgpnVbyLWk49kJOLGZs8WZRzq7WTMeZ7WW4wxkzWri6PkTvYsCdibLbU3+3OARPG2MUdxMfVMSaMh72zU9xkN9OTsywwOfVGNm4Zny4T9dPiMDk1MCTxEH5LeAZAqrMKdhKrbNgUdibDuRHGpoiYZz5wFvrHE9vn2/Sf4ugCh68qMCA+ltzB57g8dKOe8Dg5y0PRyIQPw/JM3bRXJHYD+yP3JDmPx0cOC1+VNPB88CncJP0puieb/w7yqmTM8aZmeaeXt3/gr1gjTzR913hT8+JTxxudlW/+Zmizvp2dmI0g5zUGX5WD+uauIk0lxeN3qja+mKaWyA0XVHKeMdWtmgfKITp+wFq9auKVQwlQUja+yLbLzpJWFZ1IraVmIjER8kpaJSMbV/KG/eH+cv6OcARkU3yz5XggnOLKNjXs1L8fICOczLLZ6jhT5nbv2c5ZORllU9F+gLuFTE/pOJtsqtoMcHdLBsLJJJu9tpr8zf2mCCeLbJYKc8V7JscT4ySXTaU7He81MJJVBcxF30RJ9d4ud4RzOZ53yn2+5jPybh38hHASyqby2sawI5xU7LoD4m+T5M5aJ6vjf+HGQKo4Gm9COMKyUdKBe+eADRq5ns++TYu7724sWNE6+iNjQ6FNnJGlcPyTyfaNTryJFYcnBts3O3rhxWOy8fgMXOGetHBT6xBKpJdXOeXCy50LUvnK3FwiFSsckqqvHr754ldw7ZjYOCIm1lwzDRXOQWx8NybWXWoPFc6GYH4R2v2m/YDflQWHO4xEhDeFwyEnn8+n98jmpnA8Ic7n43BSt4VDiBN650Ir3ScrsyiIAdnECKf1Kk53IJso4eyk4Ljz36fSTjKeJgVvrHsgUDgNJ+Nh6wvNNZ2EDUvD6w0bIeDPyUKQcJptqQhbBW8xcxjxVE9zqTb7TSZyqme5VKvGeCWneuKl2i2oByVVPQNDKhWRVDXYpj6TSl0kVUR/sdOp7R7skNi4uY6KlZiYMcoTFDe+dBe44NBWaBwwIpyiGRTiNBUah7ju8QMz4/SbAQ6oFHO81OcTtIJ3tDMaltXehGnnzGDQXfKdkVz8Tn7JsQv/sLBM9V96UvC0sWAjBmfFS93BYJ1DzQ1e6uY86xkGcqmINGLF3OClYnKqHnPD5ud/4TA4PetSWWx037y54VSgf2NbTyV6llvyFHGU13BWguIoprbN9HVKyYHgkaGxaoNjSSgjua4aa27GPihgZfPwigPDiRW6jBmF3sa/nRw8o8FRGxoazM0Tg+NbjQ1XzE3WpEJp7a/D3OQtYigdvxlzk9ng6EzFD8xNZoOjsr3WYG6yB4h9gy+NuXlew1EYGV8aWZqKE8w9fa88sTIlYHD01YwdK1MCo7g1N1Pou0mSXGgLEmf6bkSKGdpKOHvD3SOS80+Zo+rbSwReSku7pqYJSXiqVFyX4d5JwhMxtOSoeqJisSmoyVHNRMWMZQSOpal0kXE7jqqTrRV3xphSlJjhWbZmUtNJrlY8Lv/4/315e7Em07OMzaxRrUI7f/rl9+qGt++ZnYzP4lupaci8aPdDH6V/qRks67NITcPSSw5pbpkafl662d+4wyrvs4yNFMOsxPz4Ywzl5RPT3M/i28jEnYCbmgoax+zPsraRiQtkU1NBEzD/s4xNZOIm/1sOBd3TKfEsIgFj4eFNgqLf5TFmghuLRJ5la+GGGJe9THV9HJMtZZakeZaphQAn+/ptwDGtYitgMs/SNxDgmOwtFAFX7YgZHKFn2fUHOHP2QQy5ilyqiCr0LIv+Cs6WOwsPuL5AbApKPcuofzPakdsVL0HfSsZRST1Lp/5gij576L8HfSuZVlSxZ7n4o/p1M2Y3A0GfSijHEHuWRfvuV5v7BbuwbyUyBeWeZdRe+XO5R9AUpBu5Z+m0B8ZHbk/fpm4uApzqA+Muew9Fo7pZdQfGJvviVJvxzVU5tfaK8Zy/pbHJfEpgQr7Kkv9jNlm/uZJo7YezuvwD2GK9+FKitbdS+PwD2OL61GVgXHtCJbFu2+B6+HVBVXU6ZSRGULSAKvcsRvMmqlFiUlzf9irX7yf3LL3mFSor4jxsMeZG8lk0r1AtMrnxVforGSWKPYtTnIg7mZMThr97By/p7MWeZVOciEvNiakgXy/1LFbxkYlisVtT+8ND9Hmgm7BR/JN78PKZhcyzGL0FnEHw1YafA9L9jUKGyLP0enUjOyXsv6e5fysdlXgWvQUcIxu6dfb37sJjfu98P4Fn8Wp1Ix/yD9b9Gk7v7Nu9S7mfxantwLHqdxW2UOQoTTdc/PyMRe3obuiGWZncknKbR07dbGp1w1Wsz5jULjSgG0VVDkF2dINuItDcyohu3tINXz6nbg50Az/SqR1edMPw8mIMLy+GbngxdINugOFFNwwvL8bw8mLohhdDN+gGGF50w/DyYiXC+hTE0Op6+MCnz6gb+v2gNd3QX4xu0E1ptLqfgf1Tz9C7i5r9mu/phv3h8DNro7rhPIqcUYBe3Tg+PVlHRKa48+kf4RvVDQsNz9B7vt+AbvKh+DxRxVMCY45u6kTzeemOAg7JanLdLHz8B2yKi2MLBRxseXJbevDxs8WOdS8aU8B5Kw03mnVDQpVtaCs/BO+kA+eVEKB2U36QUGViVZ1yOBKqTOyKr2W9SsQ9nz9TBFB7SXXmCONXwuJR9+sRGGeakNXvaTwJjF8Ii+uvjB0ExoxrBBsV4xxcnEVRf8u/pWKcg/HvwzpX/4LmpAVHvL6hYDpeGFQCnDh29e7/IMARn40adhhtBDji4Y2G8sZMgCMe3mgopxr9JrU4569i+ebvr3h2qOA2F71+OpaLHUtUwr5/U/GSVntps7hcY1bxkuakB0c0C9dywO+pu1VEnqmNmejopUjL2obnv4ji2H13F99GpjG04Y7FuCgW62m+PXBUgm5qb+VFyajuZVO+lWk4klHJZVOKVoqv6g2U/u6wtWO9r16VNapw+oYm4UUmzhoVYxk1R2imSJac6uov2F8tOYzrr//f17Hq//h8Llf7lKyFhxrXnLmj/TpDj6na/wiqaShz+VeOKl9kPHy36/tQ5X8Epqba2uD2l6bJD8UOP1X4H6GGW5ebun7fXUw2yUU6SU6Eo7HM9NK+ZqlyjgKjO5fwQnorYdsLBvbPKznpdt+sop/QNVd5v1pVyZGKr9kHuFtFc8SrJFzjSp8Xnyp/TeL2FOag32VnwlUSrrEFbhXPIC/OpHwegIxedivqVTVDZSfTVddf+mH2ef+wW6Rn//qCry+/hJM6kLwU6rPynDlO4c94aW50HgozCxucy0j8PM+ly2VsMqTil+ZGZ1vBVX9jaoNjA75sbGF39iE/PsuaG639tquswQnSTdQq5HSE/bSVHT6t/f2XAUdagxOom7vK6UJVk1g3/dlkVBxS7Uw70MG6OU9vQ8e8X3z4z86i5mbTKpuASDXllBnPO7jp2tj1837rN42ouVF84t2lhV9FR/q7dOa/5eWD3e/+YCdpqzVvl75MxZPu+T3O23hnx3/bvGG07v5vJe0NuVyZUt3bf5mKJy1d2TOS3W32HzZ3xP5Myi+5t2xuQj7lKKnSrKTMDifZ3K04rmOOowSDk4RZcgZo37q4Sk6cbn9RNimjm6VxcxNicHzCXHx4z1MlfY2zdXMTYnBShsavCcenTAxd8+YmqKoy1i+cpLK5rl60cL/tKmt0XxFOUtkEpIUtXHIRYHCSLuy+IJw96fTfiG4CDU7apRbxrGpP+hkDltnauFMnwOAcSUe+20Rls6Z9eI+5CS/HJW5BWgRlk3jyb5ibO/X/xE0Bk1SQ4xPvfBuljXPlBif55oa9woj48+kD9N7QIXcBS8ypu9c6CV+VvMM3oH2jpTPuQlrxkl+iNOb2VYd5wTC3dbFtwDzyyc+sypxXLcnjjOGUt8tlEzIie/p4bzwqMjafLuRp+6Z0E5QZZzjMpcvUkuNz5MIh5rG1a7SDevFyZAp9Dme15pj1c4iVa+6k+ZDd23lupjIusWpcltDUhPx1gzeiuPemU1Ll5FFNUOVG6QEUz0PjbAOTTDmZVBO2GOv7BnUT1jWe7aDDYS01rvl8PkFNA+0FxTfSzIxV9G5+lpUfc/funGr1NpSgyC9rPdSssTVkv+a8TTYoaWj3PtugJSOfd3jGCOkcme98CWtRtK3KJtBTZW9LGm7t/nY29zwPk03Ld3aFeao9f3GrM9YFNNY5K7CKGNjX2vSt60spwvl8Pp/e2PUP6vFutUYm6w2UjW1ZNqGDJHrtwGDMbP/PbExf3oi0frPkcJYnnFcJKyu1WfH7yoxw7suGC5DD1qmaEU6gbDZkE3y60Yps2u2eiE/GWxBO6JLZgGg+n/BjsVZkk6djX3mIo1w4obIhuPlfiHMgnC5UNjvBzd0qTuo9+yXJJnQ/qSe4+cJ0tj3bws9aGRFLjHPXKZzhnStmWoqNNRrq8CPBiInjLbXXZqrDD1khJn4y6ZStzoRvIfXI5gdM8Phpyse78H0VpFIPkypFBru/cZ4Ti+CPLbaWuWc8spHMxpUM43zjfRfkkUY41deOb53jtCKOJNn4eZ573b5quLNdlMJNQuFU3VFw6wQnCjdphbPVOp69QzZvCqfS4vG9s02RTdBUvLdhe6lvUG8ebIpsAgPGe8I5jGpjg2xyCaeujPzuKcrIJp9wKopyZo9sMsY4d6/hcHVsfB3uniuIbHJmVed5nrb8Eb5/twiyyS+co/QVq/uXYCEbCeFkOxQ2Ceb++2zIJkY4ESfFrqWGOX3EgcksZUYSc8RwkcrpY96ExoloYm5v8cUFyFGqoU3rUSh5Vq+cONV4ZPOs4BF1MLUvxlvFqYYW9OfCibyItwjlmMhLIMi/E6RVsVe3vJ6Vj7FPTv6dhOgbnHPevHEp9/hbQ9gDnio6jr7BOe/1G+kdlMZtzG8GOQ9u/NnFjU7/5IKinYg4pdV/dJvqJjiFu+nZoxLavF8C/OqvZKQzRl9oxZGPuUKGZ18kv3S66aFozgMfVZyv+uUFplxVnX5O8HT4qDzM53P2ZUz9ebpxOZ4/GCsLGfOq/TzL0k43LomeqefzFhsef/1O6/y0nmzm9Uj1ONT6cofHyT7VeZ575C12vbHrnvI5CIjzh8fLmRi32SlQPr2Z7OZSPwDGRsbk7GcOvHOLtZMxxnyNfjpjjJmsXZ3zWf4XY1NflPM+HmMjSO+UyMaRRskyeQWqOVj7VhAfi2MpEOOs7i8r4KLeYjyqVc1u+HwvMtcZ5hwsRr0d5tj6lOMJbAiQUU29AfKKakCzcrwliSpMOYvH1oDCCPlANaUqZyq3nkPmXXYlsMwa8kaVj0DndlizEAzX4a72glTjcFAYndtRDaamukhne90/rbTX1Omv3pTONpF2Ix1E06B0vLB7QjRaYp1FqiC4L1RqdGVY+c2OXyeyJ40Mczbt+G1m+5xq7Uzrntw3YWfawMyJxOOen2oBtVme0W7x6nGbHfFMDcfLZrabC0+3DrcGn14BLfguM1prN+fcNxUdzjm3WmuNwScBAAAAAAAAAAAAAAAAAAAAAAAAAAAAAAAAAAAAAAAAAAAAAAAAAAAAAAAAAAAAAAAAAAAAAAAAAAAAAAAAAAAAAAAAAAAAAAAAAAAAAAAAAAAAAAAAAAAAAAAAAAAAAAAAAAAAAABo4T9o4K7ok4VtpQAAAABJRU5ErkJggg==;" parent="1" vertex="1">
                    <mxGeometry x="270" y="735" width="120" height="120" as="geometry"/>
                </mxCell>
                <mxCell id="KBqEdn5SgZ5WZnfKdi-t-74" value="" style="shape=image;verticalLabelPosition=bottom;labelBackgroundColor=default;verticalAlign=top;aspect=fixed;imageAspect=0;image=data:image/png,iVBORw0KGgoAAAANSUhEUgAAAjcAAAI3CAMAAABQ9oqcAAAAM1BMVEUAAAAAAAAAAAAAAAAAAAAAAAAAAAAAAAAAAAAAAAAAAAAAAAAAAAAAAAAAAAAAAAAAAACjBUbJAAAAEHRSTlMAECAwQFBgcICPn6+/z9/vIxqCigAAEidJREFUeNrtnWuCpCoSRlNFRUVx/6udHz13prpudYsIIQTnLCBT8SNeBPD5AAAAAAAAAAAAAAAAAAAAAAAAAAAAAAAAAAAAAAAAAAAAAAAAAAAAAAAAAAAAAAAAAAAAAAAAAAAAAAAAAAAAAAAAAAAAAAAAAAAAAAAAAAAAAAAAAAAAAAAAAAAAAAAAAAAAAAAAgAoGY6y1m3NuP7+zO+c2a60xAwMFn8/n8zGjXZw7w3FuscYwcK3SmXlx/ozlcMuMetqiH607zhQcmzUdA9qCX5q3NJL5Kh4sj27NWHfmwlm0ozJfyqiZ/2lnJt9SFQJPqz9lONaReEdHEDy7U5Zt7hn22kWzn2+wIx1EEysdHFaVMY0732ab+A6VZdxigfDf8SsZVj2mZj7OcsBf1WJqzsLA6JTPtJ8l4oh0SnZQ9jhL5cBdlZp2FxIL/9FdWWo6JarmLJ8V5aAalINqUA6qQTkQkEPVpprzPE9LbvV25u3PGvGWb/dmle84a+UY+XwvYfazZhyrDwQ2USyEOeLM/qwfz7IVLgpnVbyLWk49kJOLGZs8WZRzq7WTMeZ7WW4wxkzWri6PkTvYsCdibLbU3+3OARPG2MUdxMfVMSaMh72zU9xkN9OTsywwOfVGNm4Zny4T9dPiMDk1MCTxEH5LeAZAqrMKdhKrbNgUdibDuRHGpoiYZz5wFvrHE9vn2/Sf4ugCh68qMCA+ltzB57g8dKOe8Dg5y0PRyIQPw/JM3bRXJHYD+yP3JDmPx0cOC1+VNPB88CncJP0puieb/w7yqmTM8aZmeaeXt3/gr1gjTzR913hT8+JTxxudlW/+Zmizvp2dmI0g5zUGX5WD+uauIk0lxeN3qja+mKaWyA0XVHKeMdWtmgfKITp+wFq9auKVQwlQUja+yLbLzpJWFZ1IraVmIjER8kpaJSMbV/KG/eH+cv6OcARkU3yz5XggnOLKNjXs1L8fICOczLLZ6jhT5nbv2c5ZORllU9F+gLuFTE/pOJtsqtoMcHdLBsLJJJu9tpr8zf2mCCeLbJYKc8V7JscT4ySXTaU7He81MJJVBcxF30RJ9d4ud4RzOZ53yn2+5jPybh38hHASyqby2sawI5xU7LoD4m+T5M5aJ6vjf+HGQKo4Gm9COMKyUdKBe+eADRq5ns++TYu7724sWNE6+iNjQ6FNnJGlcPyTyfaNTryJFYcnBts3O3rhxWOy8fgMXOGetHBT6xBKpJdXOeXCy50LUvnK3FwiFSsckqqvHr754ldw7ZjYOCIm1lwzDRXOQWx8NybWXWoPFc6GYH4R2v2m/YDflQWHO4xEhDeFwyEnn8+n98jmpnA8Ic7n43BSt4VDiBN650Ir3ScrsyiIAdnECKf1Kk53IJso4eyk4Ljz36fSTjKeJgVvrHsgUDgNJ+Nh6wvNNZ2EDUvD6w0bIeDPyUKQcJptqQhbBW8xcxjxVE9zqTb7TSZyqme5VKvGeCWneuKl2i2oByVVPQNDKhWRVDXYpj6TSl0kVUR/sdOp7R7skNi4uY6KlZiYMcoTFDe+dBe44NBWaBwwIpyiGRTiNBUah7ju8QMz4/SbAQ6oFHO81OcTtIJ3tDMaltXehGnnzGDQXfKdkVz8Tn7JsQv/sLBM9V96UvC0sWAjBmfFS93BYJ1DzQ1e6uY86xkGcqmINGLF3OClYnKqHnPD5ud/4TA4PetSWWx037y54VSgf2NbTyV6llvyFHGU13BWguIoprbN9HVKyYHgkaGxaoNjSSgjua4aa27GPihgZfPwigPDiRW6jBmF3sa/nRw8o8FRGxoazM0Tg+NbjQ1XzE3WpEJp7a/D3OQtYigdvxlzk9ng6EzFD8xNZoOjsr3WYG6yB4h9gy+NuXlew1EYGV8aWZqKE8w9fa88sTIlYHD01YwdK1MCo7g1N1Pou0mSXGgLEmf6bkSKGdpKOHvD3SOS80+Zo+rbSwReSku7pqYJSXiqVFyX4d5JwhMxtOSoeqJisSmoyVHNRMWMZQSOpal0kXE7jqqTrRV3xphSlJjhWbZmUtNJrlY8Lv/4/315e7Em07OMzaxRrUI7f/rl9+qGt++ZnYzP4lupaci8aPdDH6V/qRks67NITcPSSw5pbpkafl662d+4wyrvs4yNFMOsxPz4Ywzl5RPT3M/i28jEnYCbmgoax+zPsraRiQtkU1NBEzD/s4xNZOIm/1sOBd3TKfEsIgFj4eFNgqLf5TFmghuLRJ5la+GGGJe9THV9HJMtZZakeZaphQAn+/ptwDGtYitgMs/SNxDgmOwtFAFX7YgZHKFn2fUHOHP2QQy5ilyqiCr0LIv+Cs6WOwsPuL5AbApKPcuofzPakdsVL0HfSsZRST1Lp/5gij576L8HfSuZVlSxZ7n4o/p1M2Y3A0GfSijHEHuWRfvuV5v7BbuwbyUyBeWeZdRe+XO5R9AUpBu5Z+m0B8ZHbk/fpm4uApzqA+Muew9Fo7pZdQfGJvviVJvxzVU5tfaK8Zy/pbHJfEpgQr7Kkv9jNlm/uZJo7YezuvwD2GK9+FKitbdS+PwD2OL61GVgXHtCJbFu2+B6+HVBVXU6ZSRGULSAKvcsRvMmqlFiUlzf9irX7yf3LL3mFSor4jxsMeZG8lk0r1AtMrnxVforGSWKPYtTnIg7mZMThr97By/p7MWeZVOciEvNiakgXy/1LFbxkYlisVtT+8ND9Hmgm7BR/JN78PKZhcyzGL0FnEHw1YafA9L9jUKGyLP0enUjOyXsv6e5fysdlXgWvQUcIxu6dfb37sJjfu98P4Fn8Wp1Ix/yD9b9Gk7v7Nu9S7mfxantwLHqdxW2UOQoTTdc/PyMRe3obuiGWZncknKbR07dbGp1w1Wsz5jULjSgG0VVDkF2dINuItDcyohu3tINXz6nbg50Az/SqR1edMPw8mIMLy+GbngxdINugOFFNwwvL8bw8mLohhdDN+gGGF50w/DyYiXC+hTE0Op6+MCnz6gb+v2gNd3QX4xu0E1ptLqfgf1Tz9C7i5r9mu/phv3h8DNro7rhPIqcUYBe3Tg+PVlHRKa48+kf4RvVDQsNz9B7vt+AbvKh+DxRxVMCY45u6kTzeemOAg7JanLdLHz8B2yKi2MLBRxseXJbevDxs8WOdS8aU8B5Kw03mnVDQpVtaCs/BO+kA+eVEKB2U36QUGViVZ1yOBKqTOyKr2W9SsQ9nz9TBFB7SXXmCONXwuJR9+sRGGeakNXvaTwJjF8Ii+uvjB0ExoxrBBsV4xxcnEVRf8u/pWKcg/HvwzpX/4LmpAVHvL6hYDpeGFQCnDh29e7/IMARn40adhhtBDji4Y2G8sZMgCMe3mgopxr9JrU4569i+ebvr3h2qOA2F71+OpaLHUtUwr5/U/GSVntps7hcY1bxkuakB0c0C9dywO+pu1VEnqmNmejopUjL2obnv4ji2H13F99GpjG04Y7FuCgW62m+PXBUgm5qb+VFyajuZVO+lWk4klHJZVOKVoqv6g2U/u6wtWO9r16VNapw+oYm4UUmzhoVYxk1R2imSJac6uov2F8tOYzrr//f17Hq//h8Llf7lKyFhxrXnLmj/TpDj6na/wiqaShz+VeOKl9kPHy36/tQ5X8Epqba2uD2l6bJD8UOP1X4H6GGW5ebun7fXUw2yUU6SU6Eo7HM9NK+ZqlyjgKjO5fwQnorYdsLBvbPKznpdt+sop/QNVd5v1pVyZGKr9kHuFtFc8SrJFzjSp8Xnyp/TeL2FOag32VnwlUSrrEFbhXPIC/OpHwegIxedivqVTVDZSfTVddf+mH2ef+wW6Rn//qCry+/hJM6kLwU6rPynDlO4c94aW50HgozCxucy0j8PM+ly2VsMqTil+ZGZ1vBVX9jaoNjA75sbGF39iE/PsuaG639tquswQnSTdQq5HSE/bSVHT6t/f2XAUdagxOom7vK6UJVk1g3/dlkVBxS7Uw70MG6OU9vQ8e8X3z4z86i5mbTKpuASDXllBnPO7jp2tj1837rN42ouVF84t2lhV9FR/q7dOa/5eWD3e/+YCdpqzVvl75MxZPu+T3O23hnx3/bvGG07v5vJe0NuVyZUt3bf5mKJy1d2TOS3W32HzZ3xP5Myi+5t2xuQj7lKKnSrKTMDifZ3K04rmOOowSDk4RZcgZo37q4Sk6cbn9RNimjm6VxcxNicHzCXHx4z1MlfY2zdXMTYnBShsavCcenTAxd8+YmqKoy1i+cpLK5rl60cL/tKmt0XxFOUtkEpIUtXHIRYHCSLuy+IJw96fTfiG4CDU7apRbxrGpP+hkDltnauFMnwOAcSUe+20Rls6Z9eI+5CS/HJW5BWgRlk3jyb5ibO/X/xE0Bk1SQ4xPvfBuljXPlBif55oa9woj48+kD9N7QIXcBS8ypu9c6CV+VvMM3oH2jpTPuQlrxkl+iNOb2VYd5wTC3dbFtwDzyyc+sypxXLcnjjOGUt8tlEzIie/p4bzwqMjafLuRp+6Z0E5QZZzjMpcvUkuNz5MIh5rG1a7SDevFyZAp9Dme15pj1c4iVa+6k+ZDd23lupjIusWpcltDUhPx1gzeiuPemU1Ll5FFNUOVG6QEUz0PjbAOTTDmZVBO2GOv7BnUT1jWe7aDDYS01rvl8PkFNA+0FxTfSzIxV9G5+lpUfc/funGr1NpSgyC9rPdSssTVkv+a8TTYoaWj3PtugJSOfd3jGCOkcme98CWtRtK3KJtBTZW9LGm7t/nY29zwPk03Ld3aFeao9f3GrM9YFNNY5K7CKGNjX2vSt60spwvl8Pp/e2PUP6vFutUYm6w2UjW1ZNqGDJHrtwGDMbP/PbExf3oi0frPkcJYnnFcJKyu1WfH7yoxw7suGC5DD1qmaEU6gbDZkE3y60Yps2u2eiE/GWxBO6JLZgGg+n/BjsVZkk6djX3mIo1w4obIhuPlfiHMgnC5UNjvBzd0qTuo9+yXJJnQ/qSe4+cJ0tj3bws9aGRFLjHPXKZzhnStmWoqNNRrq8CPBiInjLbXXZqrDD1khJn4y6ZStzoRvIfXI5gdM8Phpyse78H0VpFIPkypFBru/cZ4Ti+CPLbaWuWc8spHMxpUM43zjfRfkkUY41deOb53jtCKOJNn4eZ573b5quLNdlMJNQuFU3VFw6wQnCjdphbPVOp69QzZvCqfS4vG9s02RTdBUvLdhe6lvUG8ebIpsAgPGe8I5jGpjg2xyCaeujPzuKcrIJp9wKopyZo9sMsY4d6/hcHVsfB3uniuIbHJmVed5nrb8Eb5/twiyyS+co/QVq/uXYCEbCeFkOxQ2Ceb++2zIJkY4ESfFrqWGOX3EgcksZUYSc8RwkcrpY96ExoloYm5v8cUFyFGqoU3rUSh5Vq+cONV4ZPOs4BF1MLUvxlvFqYYW9OfCibyItwjlmMhLIMi/E6RVsVe3vJ6Vj7FPTv6dhOgbnHPevHEp9/hbQ9gDnio6jr7BOe/1G+kdlMZtzG8GOQ9u/NnFjU7/5IKinYg4pdV/dJvqJjiFu+nZoxLavF8C/OqvZKQzRl9oxZGPuUKGZ18kv3S66aFozgMfVZyv+uUFplxVnX5O8HT4qDzM53P2ZUz9ebpxOZ4/GCsLGfOq/TzL0k43LomeqefzFhsef/1O6/y0nmzm9Uj1ONT6cofHyT7VeZ575C12vbHrnvI5CIjzh8fLmRi32SlQPr2Z7OZSPwDGRsbk7GcOvHOLtZMxxnyNfjpjjJmsXZ3zWf4XY1NflPM+HmMjSO+UyMaRRskyeQWqOVj7VhAfi2MpEOOs7i8r4KLeYjyqVc1u+HwvMtcZ5hwsRr0d5tj6lOMJbAiQUU29AfKKakCzcrwliSpMOYvH1oDCCPlANaUqZyq3nkPmXXYlsMwa8kaVj0DndlizEAzX4a72glTjcFAYndtRDaamukhne90/rbTX1Omv3pTONpF2Ix1E06B0vLB7QjRaYp1FqiC4L1RqdGVY+c2OXyeyJ40Mczbt+G1m+5xq7Uzrntw3YWfawMyJxOOen2oBtVme0W7x6nGbHfFMDcfLZrabC0+3DrcGn14BLfguM1prN+fcNxUdzjm3WmuNwScBAAAAAAAAAAAAAAAAAAAAAAAAAAAAAAAAAAAAAAAAAAAAAAAAAAAAAAAAAAAAAAAAAAAAAAAAAAAAAAAAAAAAAAAAAAAAAAAAAAAAAAAAAAAAAAAAAAAAAAAAAAAAAAAAAAAAAABo4T9o4K7ok4VtpQAAAABJRU5ErkJggg==;" parent="1" vertex="1">
                    <mxGeometry x="370" y="880" width="120" height="120" as="geometry"/>
                </mxCell>
                <mxCell id="KBqEdn5SgZ5WZnfKdi-t-75" value="スタンプ送るボタン" style="rounded=0;whiteSpace=wrap;html=1;fillColor=none;strokeColor=none;" parent="1" vertex="1">
                    <mxGeometry x="560" y="910" width="120" height="60" as="geometry"/>
                </mxCell>
                <mxCell id="KBqEdn5SgZ5WZnfKdi-t-76" value="" style="endArrow=classic;html=1;rounded=0;" parent="1" edge="1">
                    <mxGeometry width="50" height="50" relative="1" as="geometry">
                        <mxPoint x="480" y="939.5" as="sourcePoint"/>
                        <mxPoint x="550" y="939.5" as="targetPoint"/>
                    </mxGeometry>
                </mxCell>
                <mxCell id="KBqEdn5SgZ5WZnfKdi-t-77" value="" style="line;strokeWidth=2;html=1;" parent="1" vertex="1">
                    <mxGeometry x="760" y="90" width="35" height="10" as="geometry"/>
                </mxCell>
                <mxCell id="KBqEdn5SgZ5WZnfKdi-t-79" value="" style="line;strokeWidth=2;html=1;" parent="1" vertex="1">
                    <mxGeometry x="760" y="100" width="35" height="10" as="geometry"/>
                </mxCell>
                <mxCell id="KBqEdn5SgZ5WZnfKdi-t-80" value="" style="line;strokeWidth=2;html=1;" parent="1" vertex="1">
                    <mxGeometry x="760" y="110" width="35" height="10" as="geometry"/>
                </mxCell>
                <mxCell id="KBqEdn5SgZ5WZnfKdi-t-83" value="" style="line;strokeWidth=2;html=1;" parent="1" vertex="1">
                    <mxGeometry x="70" y="1130" width="35" height="10" as="geometry"/>
                </mxCell>
                <mxCell id="KBqEdn5SgZ5WZnfKdi-t-84" value="" style="line;strokeWidth=2;html=1;" parent="1" vertex="1">
                    <mxGeometry x="70" y="1140" width="35" height="10" as="geometry"/>
                </mxCell>
                <mxCell id="KBqEdn5SgZ5WZnfKdi-t-85" value="" style="line;strokeWidth=2;html=1;" parent="1" vertex="1">
                    <mxGeometry x="70" y="1150" width="35" height="10" as="geometry"/>
                </mxCell>
                <mxCell id="KBqEdn5SgZ5WZnfKdi-t-86" value="" style="endArrow=classic;html=1;rounded=0;" parent="1" edge="1">
                    <mxGeometry width="50" height="50" relative="1" as="geometry">
                        <mxPoint x="130" y="1144.5" as="sourcePoint"/>
                        <mxPoint x="200" y="1144.5" as="targetPoint"/>
                    </mxGeometry>
                </mxCell>
                <mxCell id="KBqEdn5SgZ5WZnfKdi-t-88" value="" style="whiteSpace=wrap;html=1;aspect=fixed;fillColor=none;strokeColor=default;" parent="1" vertex="1">
                    <mxGeometry x="60" y="1180" width="800" height="800" as="geometry"/>
                </mxCell>
                <mxCell id="2" value="矢印はできれば吹き出しみたいに" style="rounded=0;whiteSpace=wrap;html=1;fillColor=#6a00ff;strokeColor=#3700CC;fontColor=#ffffff;" vertex="1" parent="1">
                    <mxGeometry x="290" y="1280" width="400" height="60" as="geometry"/>
                </mxCell>
                <mxCell id="KBqEdn5SgZ5WZnfKdi-t-89" value="" style="rounded=0;whiteSpace=wrap;html=1;fillColor=#d5e8d4;strokeColor=#82b366;" parent="1" vertex="1">
                    <mxGeometry x="630" y="1180" width="230" height="800" as="geometry"/>
                </mxCell>
                <mxCell id="KBqEdn5SgZ5WZnfKdi-t-90" value="&lt;div&gt;Aさん&lt;br&gt;&lt;/div&gt;" style="rounded=0;whiteSpace=wrap;html=1;" parent="1" vertex="1">
                    <mxGeometry x="630" y="1350" width="230" height="60" as="geometry"/>
                </mxCell>
                <mxCell id="KBqEdn5SgZ5WZnfKdi-t-91" value="Bさん" style="rounded=0;whiteSpace=wrap;html=1;" parent="1" vertex="1">
                    <mxGeometry x="630" y="1450" width="230" height="60" as="geometry"/>
                </mxCell>
                <mxCell id="KBqEdn5SgZ5WZnfKdi-t-93" value="資料を送るボタン" style="rounded=0;whiteSpace=wrap;html=1;fillColor=none;strokeColor=none;" parent="1" vertex="1">
                    <mxGeometry x="250" y="1020" width="120" height="60" as="geometry"/>
                </mxCell>
                <mxCell id="KBqEdn5SgZ5WZnfKdi-t-94" value="画面の3分の1を覆う" style="rounded=0;whiteSpace=wrap;html=1;fillColor=none;strokeColor=none;" parent="1" vertex="1">
                    <mxGeometry x="660" y="1105" width="120" height="60" as="geometry"/>
                </mxCell>
                <mxCell id="KBqEdn5SgZ5WZnfKdi-t-95" value="sample@gmail.com" style="rounded=0;whiteSpace=wrap;html=1;" parent="1" vertex="1">
                    <mxGeometry x="640" y="1220" width="130" height="40" as="geometry"/>
                </mxCell>
                <mxCell id="KBqEdn5SgZ5WZnfKdi-t-97" value="" style="shape=actor;whiteSpace=wrap;html=1;" parent="1" vertex="1">
                    <mxGeometry x="640" y="1355" width="30" height="50" as="geometry"/>
                </mxCell>
                <mxCell id="KBqEdn5SgZ5WZnfKdi-t-99" value="" style="shape=actor;whiteSpace=wrap;html=1;" parent="1" vertex="1">
                    <mxGeometry x="640" y="1455" width="30" height="50" as="geometry"/>
                </mxCell>
                <mxCell id="KBqEdn5SgZ5WZnfKdi-t-100" value="&lt;font color=&quot;#000000&quot;&gt;アイコンと名前&lt;/font&gt;" style="rounded=0;whiteSpace=wrap;html=1;fillColor=none;strokeColor=none;" parent="1" vertex="1">
                    <mxGeometry x="640" y="1290" width="120" height="60" as="geometry"/>
                </mxCell>
                <mxCell id="KBqEdn5SgZ5WZnfKdi-t-101" value="" style="shape=image;verticalLabelPosition=bottom;labelBackgroundColor=default;verticalAlign=top;aspect=fixed;imageAspect=0;image=data:image/svg+xml,PHN2ZyB4bWw6c3BhY2U9InByZXNlcnZlIiBzdHlsZT0iZW5hYmxlLWJhY2tncm91bmQ6bmV3IDAgMCAzMDAgMzAwOyIgdmlld0JveD0iMCAwIDMwMCAzMDAiIGhlaWdodD0iMzAwcHgiIHdpZHRoPSIzMDBweCIgeT0iMHB4IiB4PSIwcHgiIHhtbG5zOnhsaW5rPSJodHRwOi8vd3d3LnczLm9yZy8xOTk5L3hsaW5rIiB4bWxucz0iaHR0cDovL3d3dy53My5vcmcvMjAwMC9zdmciIGlkPSLjg6zjgqTjg6Tjg7xfMSIgdmVyc2lvbj0iMS4xIj4mI3hhOzxzdHlsZSB0eXBlPSJ0ZXh0L2NzcyI+JiN4YTsJLnN0MHtmaWxsOiMzMzMzMzM7fSYjeGE7PC9zdHlsZT4mI3hhOzxwYXRoIGQ9Ik0xNTAsODIuMDVjLTEuODUsMC0zLjY4LDAuMDktNS40OSwwLjI0Yy0yMC40OSwxLjY0LTM4LjQsMTIuMzYtNDkuNzMsMjguMTRjLTgsMTEuMTUtMTIuNzMsMjQuOC0xMi43MywzOS41NyYjeEE7JiM5O2MwLDE3Ljk2LDYuOTgsMzQuMjksMTguMzcsNDYuNDRjMTIuNCwxMy4yMywzMC4wMiwyMS41MSw0OS41OCwyMS41MWMzNy41MywwLDY3Ljk1LTMwLjQyLDY3Ljk1LTY3Ljk1UzE4Ny41Myw4Mi4wNSwxNTAsODIuMDV6JiN4QTsmIzk7IE0xODMuOTYsMTU2SDE1NnYyNy45NmMwLDMuMzEtMi42OSw2LTYsNnMtNi0yLjY5LTYtNlYxNTZoLTI3Ljk2Yy0zLjMxLDAtNi0yLjY5LTYtNnMyLjY5LTYsNi02SDE0NHYtMjcuOTZjMC0zLjMxLDIuNjktNiw2LTYmI3hBOyYjOTtzNiwyLjY5LDYsNlYxNDRoMjcuOTZjMy4zMSwwLDYsMi42OSw2LDZTMTg3LjI3LDE1NiwxODMuOTYsMTU2eiIgY2xhc3M9InN0MCIvPiYjeGE7PC9zdmc+;" parent="1" vertex="1">
                    <mxGeometry x="460" y="1109" width="80" height="80" as="geometry"/>
                </mxCell>
                <mxCell id="KBqEdn5SgZ5WZnfKdi-t-102" value="&lt;b&gt;&lt;font color=&quot;#1a1a1a&quot;&gt;メンバー追加&lt;/font&gt;&lt;/b&gt;" style="rounded=0;whiteSpace=wrap;html=1;fillColor=none;strokeColor=none;" parent="1" vertex="1">
                    <mxGeometry x="650" y="1169" width="120" height="60" as="geometry"/>
                </mxCell>
                <mxCell id="KBqEdn5SgZ5WZnfKdi-t-103" value="招待！" style="rounded=0;whiteSpace=wrap;html=1;fillColor=#dae8fc;strokeColor=#6c8ebf;" parent="1" vertex="1">
                    <mxGeometry x="790" y="1225" width="50" height="30" as="geometry"/>
                </mxCell>
            </root>
        </mxGraphModel>
    </diagram>
</mxfile>